<svg id="crownIcon" xmlns="http://www.w3.org/2000/svg" width="172" height="172" viewBox="0 0 172 172">
  <path id="Tracé_167" data-name="Tracé 167" d="M0,172V0H172V172Z" fill="none"/>
  <g id="Groupe_25" data-name="Groupe 25">
    <g id="Groupe_24" data-name="Groupe 24">
      <path id="Tracé_168" data-name="Tracé 168" d="M157.667,154.083H14.334V125.416H157.667Z" fill="#ffdc56"/>
      <path id="Tracé_169" data-name="Tracé 169" d="M161.25,154.083a7.167,7.167,0,0,1,0,14.333H10.75a7.188,7.188,0,0,1-7.167-7.167A7.005,7.005,0,0,1,5.7,156.2a7.005,7.005,0,0,1,5.052-2.114Z" fill="#fc025c"/>
      <path id="Tracé_170" data-name="Tracé 170" d="M161.25,111.083a7.167,7.167,0,0,1,0,14.333H10.75a7.188,7.188,0,0,1-7.167-7.167A7.005,7.005,0,0,1,5.7,113.2a7.005,7.005,0,0,1,5.052-2.114Z" fill="#fc025c"/>
      <path id="Tracé_171" data-name="Tracé 171" d="M99.832,71.022A17.917,17.917,0,1,1,86,64.5a17.917,17.917,0,0,1,13.832,6.522Z" fill="#fc025c"/>
      <path id="Tracé_172" data-name="Tracé 172" d="M158.634,65.467c3.655,1.792,6.2,6.558,6.2,16.949,0,13.473-4.228,17.451-9.675,17.881-.358.036-.717.036-1.075.036-5.948,0-10.75-3.583-10.75-17.917s4.8-17.917,10.75-17.917a10.18,10.18,0,0,1,4.551.967Z" fill="#fc025c"/>
      <path id="Tracé_173" data-name="Tracé 173" d="M13.366,65.467a10.18,10.18,0,0,1,4.551-.967c5.948,0,10.75,3.583,10.75,17.917s-4.8,17.917-10.75,17.917c-.358,0-.717,0-1.075-.036-5.447-.43-9.675-4.408-9.675-17.881,0-10.392,2.544-15.158,6.2-16.949Z" fill="#fc025c"/>
      <path id="Tracé_174" data-name="Tracé 174" d="M154.083,64.5a10.18,10.18,0,0,1,4.551.967l1.111-10.822L118.25,78.833,107.858,65,86,35.833l-32.25,43L12.255,54.646l1.111,10.822a10.18,10.18,0,0,1,4.551-.967c5.948,0,10.75,3.583,10.75,17.917s-4.8,17.917-10.75,17.917c-.358,0-.717,0-1.075-.036v.036l1.075,10.75H154.083l1.075-10.75V100.3c-.358.036-.717.036-1.075.036-5.948,0-10.75-3.583-10.75-17.917s4.8-17.917,10.75-17.917ZM86,100.333a17.917,17.917,0,1,1,17.917-17.917A17.917,17.917,0,0,1,86,100.333Z" fill="#ffdc56"/>
      <path id="Tracé_175" data-name="Tracé 175" d="M143.333,50.371v-.2L129,25.083,104.239,42.749,120.221,64.5Z" fill="#ffb337"/>
      <path id="Tracé_176" data-name="Tracé 176" d="M67.761,42.749,43,25.083,28.667,50.167v.2L51.779,64.5Z" fill="#ffb337"/>
      <path id="Tracé_177" data-name="Tracé 177" d="M120.221,64.5,161.25,39.417l-1.505,15.229L118.25,78.833,107.858,65,86,35.833l-32.25,43L12.255,54.646,10.75,39.417,51.779,64.5,67.761,42.749,86,17.917,104.24,42.749Z" fill="#fff86a"/>
      <path id="Tracé_178" data-name="Tracé 178" d="M108.188,48.124,120.221,64.5l15.989-9.775L125.417,35.833Z" fill="#ff8d1f"/>
      <path id="Tracé_179" data-name="Tracé 179" d="M63.812,48.124,46.583,35.833,35.79,54.725,51.779,64.5Z" fill="#ff8d1f"/>
      <rect id="Rectangle_20" data-name="Rectangle 20" width="143.333" height="7.167" transform="translate(14.333 125.417)" fill="#ffca46"/>
      <rect id="Rectangle_21" data-name="Rectangle 21" width="143.333" height="7.167" transform="translate(14.333 146.917)" fill="#ffca46"/>
      <path id="Tracé_180" data-name="Tracé 180" d="M166.3,159.136a7.005,7.005,0,0,1-5.053,2.114H10.75a7.167,7.167,0,0,1-6.167-3.583,7.034,7.034,0,0,0-1,3.583,7.188,7.188,0,0,0,7.167,7.167h150.5a7.109,7.109,0,0,0,6.167-10.75,6.945,6.945,0,0,1-1.114,1.469Z" fill="#cd0045"/>
      <path id="Tracé_181" data-name="Tracé 181" d="M166.3,116.136a7.005,7.005,0,0,1-5.053,2.114H10.75a7.167,7.167,0,0,1-6.167-3.583,7.034,7.034,0,0,0-1,3.583,7.188,7.188,0,0,0,7.167,7.167h150.5a7.109,7.109,0,0,0,6.167-10.75,6.944,6.944,0,0,1-1.114,1.469Z" fill="#cd0045"/>
      <path id="Tracé_182" data-name="Tracé 182" d="M150.5,82.417c0-11.2,2.938-15.824,7.059-17.315a10.875,10.875,0,0,0-3.476-.6c-5.948,0-10.75,3.583-10.75,17.917s4.8,17.917,10.75,17.917c.358,0,.717,0,1.075-.036a9.993,9.993,0,0,0,2.508-.523C153.5,98.33,150.5,93.729,150.5,82.417Z" fill="#cd0045"/>
      <path id="Tracé_183" data-name="Tracé 183" d="M143.333,82.417c0-11.2,2.938-15.824,7.059-17.315a10.875,10.875,0,0,0-3.476-.6c-5.948,0-10.75,3.583-10.75,17.917s4.8,17.917,10.75,17.917c.358,0,.717,0,1.075-.036a9.993,9.993,0,0,0,2.508-.523c-4.171-1.444-7.167-6.045-7.167-17.358Z" fill="#ffca46"/>
      <path id="Tracé_184" data-name="Tracé 184" d="M164.833,82.417c0-10.392-2.544-15.158-6.2-16.949a8.431,8.431,0,0,0-1.075-.358,8.045,8.045,0,0,0-1.691.871c3.2,2.1,5.382,6.851,5.382,16.437S159.1,96.75,155.91,98.882a8.123,8.123,0,0,0,1.77.892c4.175-1.451,7.152-6.056,7.152-17.358Z" fill="#ff619a"/>
      <path id="Tracé_185" data-name="Tracé 185" d="M21.5,82.417c0-11.2-2.938-15.824-7.059-17.315a10.875,10.875,0,0,1,3.476-.6c5.948,0,10.75,3.583,10.75,17.917s-4.8,17.917-10.75,17.917c-.358,0-.717,0-1.075-.036a9.994,9.994,0,0,1-2.508-.523C18.5,98.33,21.5,93.729,21.5,82.417Z" fill="#cd0045"/>
      <path id="Tracé_186" data-name="Tracé 186" d="M28.667,82.417c0-11.2-2.938-15.824-7.059-17.315a10.875,10.875,0,0,1,3.476-.6c5.948,0,10.75,3.583,10.75,17.917s-4.8,17.917-10.75,17.917c-.358,0-.717,0-1.075-.036a9.994,9.994,0,0,1-2.508-.523c4.171-1.444,7.167-6.045,7.167-17.358Z" fill="#ffca46"/>
      <path id="Tracé_187" data-name="Tracé 187" d="M7.167,82.417c0-10.392,2.544-15.158,6.2-16.949a8.431,8.431,0,0,1,1.075-.358,8.045,8.045,0,0,1,1.691.871c-3.2,2.1-5.382,6.851-5.382,16.437S12.9,96.75,16.089,98.882a8.123,8.123,0,0,1-1.756.892c-4.189-1.451-7.167-6.056-7.167-17.358Z" fill="#ff619a"/>
      <path id="Tracé_188" data-name="Tracé 188" d="M86,100.333H16.842l1.075,10.75H154.083l1.075-10.75H86Z" fill="#ffca46"/>
      <path id="Tracé_189" data-name="Tracé 189" d="M99.832,71.022a17.917,17.917,0,1,0,4.085,11.4,17.917,17.917,0,0,0-4.085-11.4ZM86,96.75a14.333,14.333,0,1,1,14.333-14.333A14.333,14.333,0,0,1,86,96.75Z" fill="#cd0045"/>
      <path id="Tracé_190" data-name="Tracé 190" d="M96.75,75.25V89.583L86,96.75,75.25,89.583V75.25L86,68.083Z" fill="#d6e0fb"/>
      <path id="Tracé_191" data-name="Tracé 191" d="M78.833,78.475,86,73.458V68.083L75.25,75.25l3.583,3.583Z" fill="#e9e9ff"/>
      <path id="Tracé_192" data-name="Tracé 192" d="M78.833,78.833,75.25,75.25V89.583L78.833,86Z" fill="#fff"/>
      <path id="Tracé_193" data-name="Tracé 193" d="M93.167,78.475v.358L96.75,75.25,86,68.083v5.375Z" fill="#fff"/>
      <path id="Tracé_194" data-name="Tracé 194" d="M93.167,78.833V86l3.583,3.583V75.25Z" fill="#e9e9ff"/>
      <path id="Tracé_195" data-name="Tracé 195" d="M93.167,86.358,86,91.375V96.75l10.75-7.167L93.167,86Z" fill="#c9d1f6"/>
      <path id="Tracé_196" data-name="Tracé 196" d="M78.833,86.358V86L75.25,89.583,86,96.75V91.375Z" fill="#bdc3f4"/>
      <path id="Tracé_197" data-name="Tracé 197" d="M164.833,75.25V89.583l-7.167,7.167L150.5,89.583V75.25l7.167-7.167Z" fill="#d6e0fb"/>
      <path id="Tracé_198" data-name="Tracé 198" d="M152.89,78.475l4.777-5.017V68.083L150.5,75.25l2.39,3.583Z" fill="#e9e9ff"/>
      <path id="Tracé_199" data-name="Tracé 199" d="M152.89,78.833,150.5,75.25V89.583L152.89,86Z" fill="#fff"/>
      <path id="Tracé_200" data-name="Tracé 200" d="M162.443,78.475v.358l2.39-3.583-7.167-7.167v5.375Z" fill="#fff"/>
      <path id="Tracé_201" data-name="Tracé 201" d="M162.443,78.833V86l2.39,3.583V75.25Z" fill="#e9e9ff"/>
      <path id="Tracé_202" data-name="Tracé 202" d="M162.443,86.358l-4.777,5.017V96.75l7.167-7.167L162.443,86Z" fill="#c9d1f6"/>
      <path id="Tracé_203" data-name="Tracé 203" d="M152.89,86.358V86l-2.39,3.583,7.167,7.167V91.375Z" fill="#bdc3f4"/>
      <path id="Tracé_204" data-name="Tracé 204" d="M21.5,75.25V89.583L14.333,96.75,7.167,89.583V75.25l7.167-7.167Z" fill="#d6e0fb"/>
      <path id="Tracé_205" data-name="Tracé 205" d="M9.557,78.475l4.777-5.017V68.083L7.167,75.25l2.39,3.583Z" fill="#e9e9ff"/>
      <path id="Tracé_206" data-name="Tracé 206" d="M9.557,78.833,7.167,75.25V89.583L9.557,86Z" fill="#fff"/>
      <path id="Tracé_207" data-name="Tracé 207" d="M19.11,78.475v.358L21.5,75.25l-7.167-7.167v5.375Z" fill="#fff"/>
      <path id="Tracé_208" data-name="Tracé 208" d="M19.11,78.833V86l2.39,3.583V75.25Z" fill="#e9e9ff"/>
      <path id="Tracé_209" data-name="Tracé 209" d="M19.11,86.358l-4.777,5.017V96.75L21.5,89.583,19.11,86Z" fill="#c9d1f6"/>
      <path id="Tracé_210" data-name="Tracé 210" d="M9.557,86.358V86l-2.39,3.583,7.167,7.167V91.375Z" fill="#bdc3f4"/>
      <circle id="Ellipse_13" data-name="Ellipse 13" cx="10.75" cy="10.75" r="10.75" transform="translate(150.5 21.5)" fill="#fc025c"/>
      <circle id="Ellipse_14" data-name="Ellipse 14" cx="7.167" cy="7.167" r="7.167" transform="translate(154.083 25.083)" fill="#ffca46"/>
      <circle id="Ellipse_15" data-name="Ellipse 15" cx="10.75" cy="10.75" r="10.75" transform="translate(75.25)" fill="#fc025c"/>
      <circle id="Ellipse_16" data-name="Ellipse 16" cx="7.167" cy="7.167" r="7.167" transform="translate(78.833 3.583)" fill="#ffca46"/>
      <circle id="Ellipse_17" data-name="Ellipse 17" cx="10.75" cy="10.75" r="10.75" transform="translate(0 21.5)" fill="#fc025c"/>
      <circle id="Ellipse_18" data-name="Ellipse 18" cx="7.167" cy="7.167" r="7.167" transform="translate(3.583 25.083)" fill="#ffca46"/>
      <path id="Tracé_211" data-name="Tracé 211" d="M132.583,134.375v10.75l-7.167,5.375-7.167-5.375v-10.75L125.416,129Z" fill="#fc025c"/>
      <path id="Tracé_212" data-name="Tracé 212" d="M120.64,136.794l4.777-3.762V129l-7.167,5.375,2.39,2.688Z" fill="#d63681"/>
      <path id="Tracé_213" data-name="Tracé 213" d="M120.64,137.063l-2.39-2.687v10.75l2.39-2.687Z" fill="#ff619a"/>
      <path id="Tracé_214" data-name="Tracé 214" d="M130.193,136.794v.269l2.39-2.687L125.416,129v4.031Z" fill="#ff619a"/>
      <path id="Tracé_215" data-name="Tracé 215" d="M130.193,137.063v5.375l2.39,2.688v-10.75Z" fill="#d63681"/>
      <path id="Tracé_216" data-name="Tracé 216" d="M130.193,142.706l-4.777,3.762V150.5l7.167-5.375-2.39-2.687Z" fill="#cd0045"/>
      <path id="Tracé_217" data-name="Tracé 217" d="M120.64,142.706v-.269l-2.39,2.688,7.167,5.375v-4.031Z" fill="#9d0808"/>
      <path id="Tracé_218" data-name="Tracé 218" d="M133.658,132.942l-7.167-5.375a1.792,1.792,0,0,0-2.15,0l-7.167,5.375a1.792,1.792,0,0,0-.717,1.433v10.75a1.792,1.792,0,0,0,.717,1.433l7.167,5.375a1.792,1.792,0,0,0,2.15,0l7.167-5.375a1.792,1.792,0,0,0,.717-1.433v-10.75A1.792,1.792,0,0,0,133.658,132.942Zm-1.075,12.183-7.167,5.375-7.167-5.375v-10.75L125.416,129l7.167,5.375Z" fill="#e9e9ff"/>
      <path id="Tracé_219" data-name="Tracé 219" d="M94.242,132.942l-7.167-5.375a1.792,1.792,0,0,0-2.15,0l-7.167,5.375a1.792,1.792,0,0,0-.717,1.433v10.75a1.792,1.792,0,0,0,.717,1.433l7.167,5.375a1.792,1.792,0,0,0,2.15,0l7.167-5.375a1.792,1.792,0,0,0,.717-1.433v-10.75A1.792,1.792,0,0,0,94.242,132.942Zm-1.075,12.183L86,150.5l-7.167-5.375v-10.75L86,129l7.167,5.375Z" fill="#e9e9ff"/>
      <path id="Tracé_220" data-name="Tracé 220" d="M51.242,132.942l-7.167-5.375a1.792,1.792,0,0,0-2.15,0l-7.167,5.375a1.792,1.792,0,0,0-.717,1.433v10.75a1.792,1.792,0,0,0,.717,1.433l7.167,5.375a1.792,1.792,0,0,0,2.15,0l7.167-5.375a1.792,1.792,0,0,0,.717-1.433v-10.75A1.792,1.792,0,0,0,51.242,132.942Zm-1.075,12.183L43,150.5l-7.167-5.375v-10.75L43,129l7.167,5.375Z" fill="#e9e9ff"/>
      <path id="Tracé_221" data-name="Tracé 221" d="M93.167,134.375v10.75L86,150.5l-7.167-5.375v-10.75L86,129Z" fill="#fc025c"/>
      <path id="Tracé_222" data-name="Tracé 222" d="M81.223,136.794,86,133.032V129l-7.167,5.375,2.39,2.688Z" fill="#d63681"/>
      <path id="Tracé_223" data-name="Tracé 223" d="M81.223,137.063l-2.39-2.687v10.75l2.39-2.687Z" fill="#ff619a"/>
      <path id="Tracé_224" data-name="Tracé 224" d="M90.777,136.794v.269l2.39-2.687L86,129v4.031Z" fill="#ff619a"/>
      <path id="Tracé_225" data-name="Tracé 225" d="M90.777,137.063v5.375l2.39,2.688v-10.75Z" fill="#d63681"/>
      <path id="Tracé_226" data-name="Tracé 226" d="M90.777,142.706,86,146.468V150.5l7.167-5.375-2.39-2.687Z" fill="#cd0045"/>
      <path id="Tracé_227" data-name="Tracé 227" d="M81.223,142.706v-.269l-2.39,2.688L86,150.5v-4.031Z" fill="#9d0808"/>
      <path id="Tracé_228" data-name="Tracé 228" d="M50.167,134.375v10.75L43,150.5l-7.167-5.375v-10.75L43,129Z" fill="#fc025c"/>
      <path id="Tracé_229" data-name="Tracé 229" d="M38.223,136.794,43,133.032V129l-7.167,5.375,2.39,2.688Z" fill="#d63681"/>
      <path id="Tracé_230" data-name="Tracé 230" d="M38.223,137.063l-2.39-2.687v10.75l2.39-2.687Z" fill="#ff619a"/>
      <path id="Tracé_231" data-name="Tracé 231" d="M47.777,136.794v.269l2.39-2.687L43,129v4.031Z" fill="#ff619a"/>
      <path id="Tracé_232" data-name="Tracé 232" d="M47.777,137.063v5.375l2.39,2.688v-10.75Z" fill="#d63681"/>
      <path id="Tracé_233" data-name="Tracé 233" d="M47.777,142.706,43,146.468V150.5l7.167-5.375-2.39-2.687Z" fill="#cd0045"/>
      <path id="Tracé_234" data-name="Tracé 234" d="M38.223,142.706v-.269l-2.39,2.688L43,150.5v-4.031Z" fill="#9d0808"/>
      <path id="Tracé_235" data-name="Tracé 235" d="M88.444,116.458a1.792,1.792,0,0,0,1.792,1.792h53.75a1.792,1.792,0,0,0,0-3.583H90.235A1.792,1.792,0,0,0,88.444,116.458Z" fill="#ff619a"/>
      <path id="Tracé_236" data-name="Tracé 236" d="M149.361,116.458a1.792,1.792,0,0,0,1.792,1.792h3.583a1.792,1.792,0,1,0,0-3.583h-3.583A1.792,1.792,0,0,0,149.361,116.458Z" fill="#ff619a"/>
      <rect id="Rectangle_22" data-name="Rectangle 22" width="21.5" height="3.583" rx="1.792" transform="translate(25.083 157.667)" fill="#ff619a"/>
      <rect id="Rectangle_23" data-name="Rectangle 23" width="7.167" height="3.583" rx="1.792" transform="translate(50.167 157.667)" fill="#ff619a"/>
      <ellipse id="Ellipse_19" data-name="Ellipse 19" cx="5.884" cy="8.191" rx="5.884" ry="8.191" transform="matrix(0.707, -0.707, 0.707, 0.707, 117.913, 90.443)" fill="#eaf6ff"/>
      <ellipse id="Ellipse_20" data-name="Ellipse 20" cx="2.956" cy="4.114" rx="2.956" ry="4.114" transform="matrix(0.707, -0.707, 0.707, 0.707, 83.446, 8.883)" fill="#eaf6ff"/>
      <ellipse id="Ellipse_21" data-name="Ellipse 21" cx="2.956" cy="4.114" rx="2.956" ry="4.114" transform="matrix(0.707, -0.707, 0.707, 0.707, 158.692, 30.382)" fill="#eaf6ff"/>
      <ellipse id="Ellipse_22" data-name="Ellipse 22" cx="2.956" cy="4.114" rx="2.956" ry="4.114" transform="matrix(0.707, -0.707, 0.707, 0.707, 112.109, 94.882)" fill="#eaf6ff"/>
      <ellipse id="Ellipse_23" data-name="Ellipse 23" cx="2.956" cy="4.114" rx="2.956" ry="4.114" transform="matrix(0.707, -0.707, 0.707, 0.707, 8.194, 30.387)" fill="#eaf6ff"/>
    </g>
  </g>
</svg>
