<svg xmlns="http://www.w3.org/2000/svg" width="213.47" height="278.438" viewBox="0 0 213.47 278.438">
  <g id="explanationIcon" transform="translate(-323.765 -627.281)">
    <g id="Groupe_5" data-name="Groupe 5" transform="translate(323.765 627.281)">
      <g id="Groupe_4" data-name="Groupe 4">
        <path id="Tracé_3" data-name="Tracé 3" d="M26.875,18.813H231.063V269.407H50.078a23.2,23.2,0,0,1-23.2-23.2V18.812Z" transform="translate(-22.234 4.39)" fill="#fff7cc"/>
        <path id="Tracé_4" data-name="Tracé 4" d="M147.531,236.922a92.813,92.813,0,0,1-92.812-92.812V18.813H26.875V246.2a23.2,23.2,0,0,0,23.2,23.2H231.063V236.923Z" transform="translate(-22.234 4.391)" fill="#ffc400"/>
        <path id="Tracé_8" data-name="Tracé 8" d="M45.437,8.063H231.062V45.188H45.437A18.563,18.563,0,0,1,26.875,26.625h0A18.563,18.563,0,0,1,45.437,8.063Z" transform="translate(-22.234 -3.422)" fill="#ffc400"/>
        <path id="Tracé_9" data-name="Tracé 9" d="M39.578,13.437H225.2V27.359H39.578a4.641,4.641,0,0,1-4.641-4.641V18.078A4.641,4.641,0,0,1,39.578,13.437Z" transform="translate(-16.374 0.484)" fill="#fff7cc"/>
        <g id="Groupe_3" data-name="Groupe 3">
          <path id="Tracé_27" data-name="Tracé 27" d="M44.953,16.125a4.641,4.641,0,0,0,0,9.281h60.328a4.641,4.641,0,0,0,0-9.281Z" transform="translate(-12.468 2.438)" fill="#311c61"/>
          <path id="Tracé_28" data-name="Tracé 28" d="M93.328,16.125a4.641,4.641,0,0,0,0,9.281h27.844a4.641,4.641,0,0,0,0-9.281Z" transform="translate(22.688 2.438)" fill="#311c61"/>
          <path id="Tracé_29" data-name="Tracé 29" d="M233.016,23.937H195.891a4.641,4.641,0,0,0,0,9.281h32.484V42.5H47.39a13.922,13.922,0,0,1,0-27.844H233.015a4.641,4.641,0,1,0,0-9.281H47.39a23.231,23.231,0,0,0-23.2,23.2V135.313a4.641,4.641,0,1,0,9.281,0V47.02A22.962,22.962,0,0,0,47.39,51.781H233.015a4.641,4.641,0,0,0,4.641-4.641V28.578a4.641,4.641,0,0,0-4.641-4.641Z" transform="translate(-24.187 -5.375)" fill="#311c61"/>
          <path id="Tracé_30" data-name="Tracé 30" d="M233.016,37.625a4.641,4.641,0,0,0-4.641,4.641V251.095H52.031a18.563,18.563,0,0,1-18.562-18.562V130.438a4.641,4.641,0,1,0-9.281,0V232.532a27.872,27.872,0,0,0,27.844,27.844H233.016a4.641,4.641,0,0,0,4.641-4.641V42.266a4.641,4.641,0,0,0-4.641-4.641Z" transform="translate(-24.187 18.063)" fill="#311c61"/>
        </g>
        <g id="zoom" transform="translate(13.376 55.14)" opacity="0.83">
          <path id="Tracé_257" data-name="Tracé 257" d="M0,186.72V0H186.72V186.72Z" fill="none"/>
          <g id="Groupe_28" data-name="Groupe 28" transform="translate(18.247 18.247)">
            <rect id="Rectangle_28" data-name="Rectangle 28" width="9.604" height="12.751" transform="translate(88.888 95.68) rotate(-45)" fill="#7e788e"/>
            <path id="Tracé_258" data-name="Tracé 258" d="M105.535,112.326a52.88,52.88,0,1,1,6.791-6.791q-1.521,1.827-3.242,3.548t-3.548,3.242Z" transform="translate(-16.65 -16.649)" fill="#978cac"/>
            <path id="Tracé_259" data-name="Tracé 259" d="M101.341,40.49a43.027,43.027,0,1,1-30.426-12.6,43.029,43.029,0,0,1,30.426,12.6Z" transform="translate(-15.873 -15.873)" fill="#a0eaea"/>
            <path id="Tracé_260" data-name="Tracé 260" d="M153.475,137.933,127.743,112.2,112.2,127.743l25.732,25.732a10.991,10.991,0,0,0,15.543-15.543Z" transform="translate(-8.658 -8.657)" fill="#6d7486"/>
            <rect id="Rectangle_29" data-name="Rectangle 29" width="21.982" height="15.045" transform="translate(92.907 108.451) rotate(-45)" fill="#b0b5ca"/>
            <path id="Tracé_261" data-name="Tracé 261" d="M51.43,101.341A43.029,43.029,0,0,1,76.386,28.236a43.029,43.029,0,1,0,0,85.359A42.832,42.832,0,0,1,51.43,101.341Z" transform="translate(-15.873 -15.873)" fill="#86bfbe"/>
            <path id="Tracé_262" data-name="Tracé 262" d="M71.863,126.9a54.949,54.949,0,0,0,33.684-11.473l5.461,5.461-2.83,2.83a2.188,2.188,0,0,0,0,3.094l36.368,36.37a13.181,13.181,0,1,0,18.641-18.641l-36.37-36.369a2.188,2.188,0,0,0-3.094,0l-2.83,2.83-5.461-5.461A55.122,55.122,0,1,0,71.862,126.9Zm88.229,20.739a8.8,8.8,0,0,1-12.45,12.45l-24.185-24.185,12.45-12.45Zm-34.823-34.824,7.544,7.543-12.451,12.451-7.544-7.542ZM117.8,114.1l-3.7,3.7-5.194-5.194q.962-.875,1.893-1.8t1.8-1.893ZM36.018,36.018a50.691,50.691,0,1,1,0,71.688A50.749,50.749,0,0,1,36.018,36.018Z" transform="translate(-16.82 -16.82)" fill="#284268"/>
            <path id="Tracé_263" data-name="Tracé 263" d="M38.9,57.058a2.188,2.188,0,0,0-2.723,1.47,37.476,37.476,0,0,0,2.73,28.012A2.188,2.188,0,1,0,42.78,84.5a33.063,33.063,0,0,1-2.407-24.715,2.188,2.188,0,0,0-1.47-2.723Z" transform="translate(-15.295 -13.384)" fill="#284268"/>
            <path id="Tracé_264" data-name="Tracé 264" d="M43.323,53.082c.511-.839,1.063-1.667,1.647-2.457a2.188,2.188,0,1,0-3.52-2.6c-.662.9-1.291,1.835-1.869,2.788a2.188,2.188,0,1,0,3.742,2.268Z" transform="translate(-14.901 -14.227)" fill="#284268"/>
            <path id="Tracé_265" data-name="Tracé 265" d="M71.1,116.262a45.207,45.207,0,0,0,32.015-77.171A44.591,44.591,0,0,0,82.184,27.214a2.188,2.188,0,0,0-2.713,2.125v.018a2.193,2.193,0,0,0,1.657,2.12,41.461,41.461,0,0,1,18.889,10.71,40.856,40.856,0,1,1-57.752,0A40.082,40.082,0,0,1,66.561,30.5a2.188,2.188,0,1,0-.46-4.349,44.521,44.521,0,0,0-26.938,12.94A45.183,45.183,0,0,0,71.1,116.262Z" transform="translate(-16.041 -16.023)" fill="#284268"/>
          </g>
        </g>
      </g>
    </g>
  </g>
</svg>
