<svg xmlns="http://www.w3.org/2000/svg" width="134.16" height="134.16" viewBox="0 0 134.16 134.16">
  <g id="numericIcon" transform="translate(-27.92 -26.92)">
    <g id="Groupe_18" data-name="Groupe 18" transform="translate(9 8)">
      <path id="Tracé_60" data-name="Tracé 60" d="M22.36,46.44a3.44,3.44,0,1,0,3.44,3.44A3.44,3.44,0,0,0,22.36,46.44Z" fill="#ee3e54"/>
      <path id="Tracé_61" data-name="Tracé 61" d="M132.44,20.64a1.72,1.72,0,1,0,1.72,1.72A1.72,1.72,0,0,0,132.44,20.64Z" fill="#f1bc19"/>
      <path id="Tracé_62" data-name="Tracé 62" d="M86,22.36A63.64,63.64,0,1,0,149.64,86,63.64,63.64,0,0,0,86,22.36Z" fill="#fff1a8" stroke="#ff9500" stroke-width="5"/>
      <path id="Tracé_63" data-name="Tracé 63" d="M142.76,18.92a6.88,6.88,0,1,0,6.88,6.88,6.88,6.88,0,0,0-6.88-6.88Z" fill="#f1bc19"/>
      <path id="Tracé_64" data-name="Tracé 64" d="M149.64,37.84a3.44,3.44,0,1,0,3.44,3.44A3.44,3.44,0,0,0,149.64,37.84Z" fill="#ee3e54"/>
      <path id="Tracé_65" data-name="Tracé 65" d="M139.32,127.28a3.44,3.44,0,1,0,3.44,3.44A3.44,3.44,0,0,0,139.32,127.28ZM25.8,101.48a6.88,6.88,0,1,0,6.88,6.88A6.88,6.88,0,0,0,25.8,101.48Z" fill="#fbcd59"/>
      <path id="Tracé_66" data-name="Tracé 66" d="M43,146.2a3.44,3.44,0,1,0,3.44,3.44A3.44,3.44,0,0,0,43,146.2Z" fill="#ee3e54"/>
      <path id="Tracé_67" data-name="Tracé 67" d="M31.82,87.72a4.3,4.3,0,1,0,4.3,4.3A4.3,4.3,0,0,0,31.82,87.72Z" fill="#fff"/>
      <path id="Tracé_68" data-name="Tracé 68" d="M36.12,113.52a1.72,1.72,0,1,0,1.72,1.72A1.72,1.72,0,0,0,36.12,113.52Z" fill="#f1bc19"/>
      <path id="Tracé_69" data-name="Tracé 69" d="M137.6,56.76a1.72,1.72,0,1,0,1.72,1.72A1.72,1.72,0,0,0,137.6,56.76Z" fill="#fff"/>
      <path id="Tracé_240" data-name="Tracé 240" d="M11.779-18.582a5.114,5.114,0,0,0,3.328-1.134,3.95,3.95,0,0,0,1.4-3.254,3.888,3.888,0,0,0-1.113-2.782,3.956,3.956,0,0,0-3-1.165,5.371,5.371,0,0,0-2.11.357,3.4,3.4,0,0,0-1.312.945A7.122,7.122,0,0,0,8.052-24.1q-.43.924-.787,1.743a1.476,1.476,0,0,1-.756.693,2.976,2.976,0,0,1-1.26.252A2.177,2.177,0,0,1,3.706-22.1,2.414,2.414,0,0,1,3-23.915a4.8,4.8,0,0,1,.661-2.3,8.388,8.388,0,0,1,1.932-2.3,9.711,9.711,0,0,1,3.16-1.753,12.714,12.714,0,0,1,4.22-.661,11.767,11.767,0,0,1,3.716.556,8.681,8.681,0,0,1,2.918,1.606,6.937,6.937,0,0,1,1.869,2.436,7.12,7.12,0,0,1,.63,2.981,6.8,6.8,0,0,1-.913,3.6,12.146,12.146,0,0,1-2.614,2.929A11.575,11.575,0,0,1,21.343-14.8a7.745,7.745,0,0,1,1.69,2.509A7.719,7.719,0,0,1,23.6-9.322a9.274,9.274,0,0,1-.766,3.7,9.427,9.427,0,0,1-2.257,3.181A10.762,10.762,0,0,1,17.038-.262a12.509,12.509,0,0,1-4.525.787A10.832,10.832,0,0,1,8-.378,10.394,10.394,0,0,1,4.714-2.635a10.275,10.275,0,0,1-1.953-2.8A6.083,6.083,0,0,1,2.1-7.832a2.578,2.578,0,0,1,.787-1.963A2.744,2.744,0,0,1,4.85-10.54a2.087,2.087,0,0,1,1.134.346,1.635,1.635,0,0,1,.714.829A14.133,14.133,0,0,0,9.039-5.029a4.441,4.441,0,0,0,3.517,1.417,5.287,5.287,0,0,0,2.509-.64,5.231,5.231,0,0,0,1.995-1.9,5.391,5.391,0,0,0,.787-2.918A5.325,5.325,0,0,0,16.5-12.923a4.943,4.943,0,0,0-3.737-1.4q-.42,0-1.3.084t-1.134.084a2.546,2.546,0,0,1-1.785-.577,2.07,2.07,0,0,1-.63-1.606,2,2,0,0,1,.756-1.627,3.482,3.482,0,0,1,2.247-.619ZM32.313.525a3.269,3.269,0,0,1-2.247-.84,2.982,2.982,0,0,1-.945-2.352,3.044,3.044,0,0,1,.9-2.2,2.989,2.989,0,0,1,2.226-.924,3.111,3.111,0,0,1,2.257.913,2.982,2.982,0,0,1,.934,2.215,3.006,3.006,0,0,1-.934,2.341A3.155,3.155,0,0,1,32.313.525Zm18.833-3.4V-21.983q-5.333,4.094-7.181,4.094a2.122,2.122,0,0,1-1.564-.7,2.267,2.267,0,0,1-.682-1.627,1.84,1.84,0,0,1,.672-1.575,14.9,14.9,0,0,1,2.373-1.3,17.708,17.708,0,0,0,4.063-2.52,17.192,17.192,0,0,0,2.7-2.96q1.176-1.638,1.533-2.016a1.835,1.835,0,0,1,1.344-.378,2.151,2.151,0,0,1,1.785.861,3.765,3.765,0,0,1,.672,2.373V-3.7q0,4.22-2.876,4.22a2.638,2.638,0,0,1-2.058-.861A3.678,3.678,0,0,1,51.146-2.876Zm28.471.21V-6.572H69.077a4.333,4.333,0,0,1-2.992-.9,3.148,3.148,0,0,1-1-2.457,2.381,2.381,0,0,1,.147-.808,4.191,4.191,0,0,1,.441-.861q.294-.451.609-.871t.777-1.029L78.189-28.387a16.962,16.962,0,0,1,1.8-2.131,2.38,2.38,0,0,1,1.69-.661q3.191,0,3.191,3.653v16.251h.9a6.379,6.379,0,0,1,2.593.441A1.891,1.891,0,0,1,89.338-8.9a2.011,2.011,0,0,1-.8,1.774,4.2,4.2,0,0,1-2.394.556H84.866v3.905a3.487,3.487,0,0,1-.714,2.4,2.453,2.453,0,0,1-1.911.787,2.43,2.43,0,0,1-1.9-.808A3.466,3.466,0,0,1,79.617-2.667Zm-9.028-8.608h9.028v-12.2Z" transform="translate(41 102)" fill="#fc025c"/>
    </g>
  </g>
</svg>
