<svg xmlns="http://www.w3.org/2000/svg" width="213.47" height="278.438" viewBox="0 0 213.47 278.438">
  <g id="rules1" transform="translate(-323.765 -627.281)">
    <g id="Groupe_5" data-name="Groupe 5" transform="translate(323.765 627.281)">
      <g id="Groupe_4" data-name="Groupe 4">
        <path id="Tracé_3" data-name="Tracé 3" d="M26.875,18.813H231.063V269.407H50.078a23.2,23.2,0,0,1-23.2-23.2V18.812Z" transform="translate(-22.234 4.39)" fill="#fff7cc"/>
        <path id="Tracé_4" data-name="Tracé 4" d="M147.531,236.922a92.813,92.813,0,0,1-92.812-92.812V18.813H26.875V246.2a23.2,23.2,0,0,0,23.2,23.2H231.063V236.923Z" transform="translate(-22.234 4.391)" fill="#ffc400"/>
        <g id="InterieurManette" transform="translate(30.539 153.672)">
          <path id="Tracé_5" data-name="Tracé 5" d="M169.633,102.125H78.472a35.452,35.452,0,1,0,31.992,50.645H137.64a35.452,35.452,0,1,0,31.992-50.645Z" transform="translate(-42.978 -102.125)" fill="#ff619a"/>
          <path id="Tracé_6" data-name="Tracé 6" d="M184.826,162.9a45.312,45.312,0,0,1-32.565-13.745,36.566,36.566,0,0,0-26.042-11.577h-12.3a35.451,35.451,0,0,1-35.452-35.452,35.452,35.452,0,1,0,31.992,50.645H137.64a35.365,35.365,0,0,0,58.125,8.706,45.311,45.311,0,0,1-10.939,1.423Z" transform="translate(-42.978 -102.125)" fill="#fc025c"/>
          <path id="Tracé_7" data-name="Tracé 7" d="M78.453,165.949a35.138,35.138,0,0,0,15.259-3.489,101.5,101.5,0,0,1-44.249-52.332,35.421,35.421,0,0,0,28.989,55.821Z" transform="translate(-42.96 -95.046)" fill="#cd0045"/>
        </g>
        <path id="Tracé_8" data-name="Tracé 8" d="M45.437,8.063H231.062V45.188H45.437A18.563,18.563,0,0,1,26.875,26.625h0A18.563,18.563,0,0,1,45.437,8.063Z" transform="translate(-22.234 -3.422)" fill="#ffc400"/>
        <path id="Tracé_9" data-name="Tracé 9" d="M39.578,13.437H225.2V27.359H39.578a4.641,4.641,0,0,1-4.641-4.641V18.078A4.641,4.641,0,0,1,39.578,13.437Z" transform="translate(-16.374 0.484)" fill="#fff7cc"/>
        <g id="Groupe_3" data-name="Groupe 3">
          <g id="contourManette" transform="translate(25.47 148.608)">
            <path id="Tracé_22" data-name="Tracé 22" d="M96.044,104.5a5.065,5.065,0,0,0,5.064,5.065h70.9a30.387,30.387,0,1,1-27.419,43.4,5.064,5.064,0,0,0-4.558-2.887H112.843a5.065,5.065,0,0,0-4.558,2.887,30.387,30.387,0,1,1-27.434-43.4,5.065,5.065,0,0,0,0-10.129A40.516,40.516,0,1,0,115.9,160.212h21.068a40.516,40.516,0,1,0,35.046-60.774h-70.9a5.064,5.064,0,0,0-5.065,5.065Z" transform="translate(-40.288 -99.437)" fill="#311c61"/>
            <path id="Tracé_23" data-name="Tracé 23" d="M75.2,124.193v-7.6a5.065,5.065,0,1,0-10.129,0v7.6h-7.6a5.064,5.064,0,1,0,0,10.129h7.6v7.6a5.065,5.065,0,0,0,10.129,0v-7.6h7.6a5.064,5.064,0,1,0,0-10.129Z" transform="translate(-29.57 -88.741)" fill="#311c61"/>
            <ellipse id="Ellipse_3" data-name="Ellipse 3" cx="5.065" cy="5.065" rx="5.065" ry="5.065" transform="translate(126.658 20.258)" fill="#311c61"/>
            <ellipse id="Ellipse_4" data-name="Ellipse 4" cx="5.065" cy="5.065" rx="5.065" ry="5.065" transform="translate(126.658 45.581)" fill="#311c61"/>
            <ellipse id="Ellipse_5" data-name="Ellipse 5" cx="5.065" cy="5.065" rx="5.065" ry="5.065" transform="translate(113.997 32.919)" fill="#311c61"/>
            <ellipse id="Ellipse_6" data-name="Ellipse 6" cx="5.065" cy="5.065" rx="5.065" ry="5.065" transform="translate(139.32 32.919)" fill="#311c61"/>
          </g>
          <path id="Tracé_27" data-name="Tracé 27" d="M44.953,16.125a4.641,4.641,0,0,0,0,9.281h60.328a4.641,4.641,0,0,0,0-9.281Z" transform="translate(-12.468 2.438)" fill="#311c61"/>
          <path id="Tracé_28" data-name="Tracé 28" d="M93.328,16.125a4.641,4.641,0,0,0,0,9.281h27.844a4.641,4.641,0,0,0,0-9.281Z" transform="translate(22.688 2.438)" fill="#311c61"/>
          <path id="Tracé_29" data-name="Tracé 29" d="M233.016,23.937H195.891a4.641,4.641,0,0,0,0,9.281h32.484V42.5H47.39a13.922,13.922,0,0,1,0-27.844H233.015a4.641,4.641,0,1,0,0-9.281H47.39a23.231,23.231,0,0,0-23.2,23.2V135.313a4.641,4.641,0,1,0,9.281,0V47.02A22.962,22.962,0,0,0,47.39,51.781H233.015a4.641,4.641,0,0,0,4.641-4.641V28.578a4.641,4.641,0,0,0-4.641-4.641Z" transform="translate(-24.187 -5.375)" fill="#311c61"/>
          <path id="Tracé_30" data-name="Tracé 30" d="M233.016,37.625a4.641,4.641,0,0,0-4.641,4.641V251.095H52.031a18.563,18.563,0,0,1-18.562-18.562V130.438a4.641,4.641,0,1,0-9.281,0V232.532a27.872,27.872,0,0,0,27.844,27.844H233.016a4.641,4.641,0,0,0,4.641-4.641V42.266a4.641,4.641,0,0,0-4.641-4.641Z" transform="translate(-24.187 18.063)" fill="#311c61"/>
        </g>
        <path id="Tracé_237" data-name="Tracé 237" d="M38.046,0H27.721L21.514-10.27q-.7-1.169-1.336-2.087a11.6,11.6,0,0,0-1.294-1.573,5.147,5.147,0,0,0-1.364-1,3.462,3.462,0,0,0-1.545-.348H13.554V0H4.564V-39.911h14.25q14.528,0,14.528,10.854A11.24,11.24,0,0,1,32.7-25.2a10.708,10.708,0,0,1-1.809,3.187,11.468,11.468,0,0,1-2.825,2.449,14.569,14.569,0,0,1-3.688,1.614v.111a5.72,5.72,0,0,1,1.726.9,12.357,12.357,0,0,1,1.614,1.461,20.386,20.386,0,0,1,1.489,1.8q.71.96,1.294,1.879ZM13.554-33.176v11.1h3.9a6.46,6.46,0,0,0,4.648-1.67,5.573,5.573,0,0,0,1.781-4.2q0-5.232-6.262-5.232ZM74.312-17.284Q74.312.7,57.557.7,41.3.7,41.3-16.866V-39.911H50.32v23.156q0,9.686,7.57,9.686,7.431,0,7.431-9.352v-23.49h8.99ZM106.764,0H83V-39.911h8.99V-7.292h14.779Zm29.307,0H112.135V-39.911h23.017v7.32H121.125v8.878h13.053v7.292H121.125v9.129h14.946Zm4.564-1.531v-8.906a17.114,17.114,0,0,0,5.26,3.048,16.908,16.908,0,0,0,5.733,1.016,12.714,12.714,0,0,0,2.964-.306,6.943,6.943,0,0,0,2.115-.849,3.7,3.7,0,0,0,1.266-1.28,3.194,3.194,0,0,0,.417-1.6,3.46,3.46,0,0,0-.668-2.087,7.188,7.188,0,0,0-1.823-1.7,19.048,19.048,0,0,0-2.741-1.5q-1.586-.724-3.423-1.475a17.472,17.472,0,0,1-6.972-4.759,10.39,10.39,0,0,1-2.3-6.791,10.816,10.816,0,0,1,1.252-5.358,10.637,10.637,0,0,1,3.409-3.688,15.287,15.287,0,0,1,5-2.129,25.67,25.67,0,0,1,6.012-.682,36.158,36.158,0,0,1,5.525.376,21.727,21.727,0,0,1,4.439,1.155v8.322a13.423,13.423,0,0,0-2.185-1.225,17.31,17.31,0,0,0-2.435-.877,18.576,18.576,0,0,0-2.491-.515,17.63,17.63,0,0,0-2.352-.167,12.265,12.265,0,0,0-2.783.292,7.139,7.139,0,0,0-2.115.821A4.085,4.085,0,0,0,150.4-31.13a3,3,0,0,0-.473,1.656,3.163,3.163,0,0,0,.529,1.8,6.066,6.066,0,0,0,1.5,1.5,15.949,15.949,0,0,0,2.366,1.392q1.392.682,3.145,1.406a35.045,35.045,0,0,1,4.3,2.129,15.287,15.287,0,0,1,3.27,2.547,9.921,9.921,0,0,1,2.087,3.242,11.457,11.457,0,0,1,.724,4.244,11.369,11.369,0,0,1-1.266,5.608,10.281,10.281,0,0,1-3.437,3.674A14.9,14.9,0,0,1,158.1.083,29.194,29.194,0,0,1,152.019.7,33.815,33.815,0,0,1,145.77.139,18.862,18.862,0,0,1,140.635-1.531Z" transform="translate(26.235 103.719)" fill="#fc025c"/>
      </g>
    </g>
  </g>
</svg>
