<svg xmlns="http://www.w3.org/2000/svg" width="132.28" height="132.28" viewBox="0 0 132.28 132.28">
  <g id="shareLinkIconLobby" transform="translate(-28.86 -27.86)">
    <g id="Groupe_18" data-name="Groupe 18" transform="translate(9 8)">
      <path id="Tracé_62" data-name="Tracé 62" d="M86,22.36A63.64,63.64,0,1,0,149.64,86,63.64,63.64,0,0,0,86,22.36Z" fill="#fff1a8" stroke="#ff9500" stroke-width="5"/>
      <path id="Tracé_70" data-name="Tracé 70" d="M65.188,76.884H70.52v21.5H65.188Z" fill="#fc025c"/>
      <path id="Tracé_87" data-name="Tracé 87" d="M65.188,76.884H70.52v21.5H65.188Z" transform="translate(141.601 1.102) rotate(65)" fill="#fc025c"/>
      <path id="Tracé_89" data-name="Tracé 89" d="M65.188,76.884H70.52v21.5H65.188Z" transform="translate(199.954 51.173) rotate(115)" fill="#fc025c"/>
      <path id="Tracé_71" data-name="Tracé 71" d="M64.5,98.04a.813.813,0,0,1-.86-.86V78.26a.86.86,0,0,1,1.72,0V97.18A.813.813,0,0,1,64.5,98.04Zm6.88,0a.813.813,0,0,1-.86-.86V78.26a.86.86,0,0,1,1.72,0V97.18A.813.813,0,0,1,71.38,98.04Z" fill="#fff1a8"/>
      <g id="Groupe_11" data-name="Groupe 11">
        <path id="Tracé_77" data-name="Tracé 77" d="M81.872,99.76a.946.946,0,0,1-.86-.516,1.064,1.064,0,0,1,.344-1.2l17.2-7.912a1.064,1.064,0,0,1,1.2.344c.344.344,0,.86-.344,1.2l-17.2,7.912C82.216,99.76,82.044,99.76,81.872,99.76Z" fill="#fff1a8"/>
      </g>
      <g id="Groupe_12" data-name="Groupe 12">
        <path id="Tracé_78" data-name="Tracé 78" d="M114.38,70A16.856,16.856,0,1,0,131.236,86.86,16.856,16.856,0,0,0,114.38,70Z" fill="#fc025c"/>
        <path id="Tracé_79" data-name="Tracé 79" d="M114.38,71.208A15.652,15.652,0,1,1,98.728,86.86,15.709,15.709,0,0,1,114.38,71.208m0-2.408a18.06,18.06,0,1,0,18.06,18.06A18.058,18.058,0,0,0,114.38,68.8Z" fill="#fff1a8"/>
      </g>
      <g id="Groupe_13" data-name="Groupe 13">
        <path id="Tracé_80" data-name="Tracé 80" d="M114.38,98.04a11.18,11.18,0,0,1,0-22.36.86.86,0,0,1,0,1.72,9.46,9.46,0,1,0,9.46,9.46.86.86,0,1,1,1.72,0A11.158,11.158,0,0,1,114.38,98.04Zm9.288-14.964c-.344,0-.688-.172-.688-.516a10.138,10.138,0,0,0-3.956-4.128.885.885,0,1,1,.86-1.548,10.5,10.5,0,0,1,4.644,4.816,1.14,1.14,0,0,1-.344,1.2c-.344.172-.344.172-.516.172Z" fill="#fff1a8"/>
      </g>
      <g id="Groupe_14" data-name="Groupe 14">
        <path id="Tracé_81" data-name="Tracé 81" d="M67.94,47.644A16.856,16.856,0,1,0,84.8,64.5,16.856,16.856,0,0,0,67.94,47.644Z" fill="#fc025c"/>
        <path id="Tracé_82" data-name="Tracé 82" d="M67.94,48.848A15.652,15.652,0,1,1,52.288,64.5,15.709,15.709,0,0,1,67.94,48.848m0-2.408A18.06,18.06,0,1,0,86,64.5,18.058,18.058,0,0,0,67.94,46.44Z" fill="#ffef97"/>
      </g>
      <g id="Groupe_15" data-name="Groupe 15">
        <path id="Tracé_83" data-name="Tracé 83" d="M67.94,75.68a11.18,11.18,0,0,1,0-22.36.86.86,0,0,1,0,1.72A9.46,9.46,0,1,0,77.4,64.5a.86.86,0,0,1,1.72,0A11.158,11.158,0,0,1,67.94,75.68Zm9.288-14.964c-.344,0-.688-.172-.688-.516a10.138,10.138,0,0,0-3.956-4.128.885.885,0,1,1,.86-1.548,10.5,10.5,0,0,1,4.644,4.816,1.14,1.14,0,0,1-.344,1.2c-.344.172-.344.172-.516.172Z" fill="#ffef97"/>
      </g>
      <g id="Groupe_16" data-name="Groupe 16">
        <path id="Tracé_84" data-name="Tracé 84" d="M67.94,94.084A16.856,16.856,0,1,0,84.8,110.94,16.856,16.856,0,0,0,67.94,94.084Z" fill="#fc025c"/>
        <path id="Tracé_85" data-name="Tracé 85" d="M67.94,95.288A15.652,15.652,0,1,1,52.288,110.94,15.709,15.709,0,0,1,67.94,95.288m0-2.408A18.06,18.06,0,1,0,86,110.94,18.058,18.058,0,0,0,67.94,92.88Z" fill="#ffef97"/>
      </g>
      <g id="Groupe_17" data-name="Groupe 17">
        <path id="Tracé_86" data-name="Tracé 86" d="M67.94,122.12a11.18,11.18,0,0,1,0-22.36.86.86,0,1,1,0,1.72,9.46,9.46,0,1,0,9.46,9.46.86.86,0,0,1,1.72,0A11.158,11.158,0,0,1,67.94,122.12Zm9.288-14.964c-.344,0-.688-.172-.688-.516a10.138,10.138,0,0,0-3.956-4.128.987.987,0,0,1-.344-1.2c.172-.516.688-.516,1.2-.344a10.5,10.5,0,0,1,4.644,4.816,1.14,1.14,0,0,1-.344,1.2c-.344.172-.344.172-.516.172Z" fill="#ffef97"/>
      </g>
    </g>
  </g>
</svg>
