<svg id="thirdPlaceIcon" xmlns="http://www.w3.org/2000/svg" width="172" height="172" viewBox="0 0 172 172">
  <path id="Tracé_241" data-name="Tracé 241" d="M0,172V0H172V172Z" fill="none"/>
  <g id="Groupe_27" data-name="Groupe 27">
    <g id="Groupe_26" data-name="Groupe 26">
      <path id="Tracé_249" data-name="Tracé 249" d="M0,0H16.125V69.875H0Z" transform="translate(102.125 8.063)" fill="#ff619a"/>
      <rect id="Rectangle_25" data-name="Rectangle 25" width="16.125" height="69.875" transform="translate(86 8.063)" fill="#5841b6"/>
      <rect id="Rectangle_26" data-name="Rectangle 26" width="16.125" height="69.875" transform="translate(69.875 8.063)" fill="#ff619a"/>
      <rect id="Rectangle_27" data-name="Rectangle 27" width="16.125" height="69.875" transform="translate(53.75 8.063)" fill="#311c61"/>
      <path id="Tracé_242" data-name="Tracé 242" d="M118.25,51.063V77.938H102.125V50.928c.887.081,1.774.134,2.688.134Z" fill="#fc025c"/>
      <path id="Tracé_243" data-name="Tracé 243" d="M102.125,50.928V77.938H86V43.376a26.741,26.741,0,0,0,16.125,7.552Z" fill="#311c61"/>
      <path id="Tracé_244" data-name="Tracé 244" d="M86,43.376V77.938H69.875V8.063h8.063V24.188A26.859,26.859,0,0,0,86,43.376Z" fill="#fc025c"/>
      <circle id="Ellipse_24" data-name="Ellipse 24" cx="53.75" cy="53.75" r="53.75" transform="translate(32.25 56.438)" fill="#bd5e1a"/>
      <path id="Tracé_245" data-name="Tracé 245" d="M136.552,128.516a53.75,53.75,0,1,1-79.6-63.533,53.75,53.75,0,0,0,79.6,63.532Z" fill="#8b4513"/>
      <path id="Exclusion_1" data-name="Exclusion 1" d="M-4562-753.813a42.732,42.732,0,0,1-16.737-3.379,42.851,42.851,0,0,1-13.668-9.215,42.848,42.848,0,0,1-9.216-13.668A42.733,42.733,0,0,1-4605-796.812a42.737,42.737,0,0,1,3.379-16.738,42.849,42.849,0,0,1,9.216-13.668,42.851,42.851,0,0,1,13.668-9.215A42.729,42.729,0,0,1-4562-839.812a42.735,42.735,0,0,1,16.738,3.379,42.848,42.848,0,0,1,13.667,9.215,42.86,42.86,0,0,1,9.216,13.668A42.73,42.73,0,0,1-4519-796.812a42.727,42.727,0,0,1-3.379,16.737,42.861,42.861,0,0,1-9.216,13.668,42.847,42.847,0,0,1-13.667,9.215A42.735,42.735,0,0,1-4562-753.813Zm-17.774-36.049v4.75c0,5.688.431,9.739,1.281,12.042a11.661,11.661,0,0,0,5.344,5.863c2.7,1.588,6.46,2.393,11.188,2.393a22.535,22.535,0,0,0,10.279-2.061,11.66,11.66,0,0,0,5.641-6.014c1.083-2.623,1.633-6.364,1.633-11.12,0-6.405-.562-10.534-1.67-12.271a9.337,9.337,0,0,0-5.084-3.769,12.334,12.334,0,0,0,4.824-4.1c.911-1.489,1.373-3.941,1.373-7.287,0-4.946-1.286-8.864-3.822-11.645s-7.431-4.189-14.547-4.189c-5.688,0-9.9,1.017-12.506,3.023s-3.934,5.922-3.934,11.634v5.121h14.993v-4.936a11.277,11.277,0,0,1,.574-4.508,2.22,2.22,0,0,1,2.135-1.057,2.248,2.248,0,0,1,2.022,1c.43.665.648,2.064.648,4.156v3.34a12.327,12.327,0,0,1-.556,4.3,2.892,2.892,0,0,1-1.819,1.781,30.36,30.36,0,0,1-6.6.408v8.721a23.863,23.863,0,0,1,5.9.576,3.877,3.877,0,0,1,2.3,2.1,12.234,12.234,0,0,1,.779,5.047v4.156c0,3.744-.187,6.091-.556,6.977a2.24,2.24,0,0,1-2.3,1.336,2.009,2.009,0,0,1-2.06-1.057,15.914,15.914,0,0,1-.463-4.954v-9.76Z" transform="translate(4648 907)" fill="#8b4513"/>
      <path id="backSombre" d="M86,67.188a43,43,0,1,0,43,43A43,43,0,0,0,86,67.188Zm21.5,69.876A53.691,53.691,0,0,1,53.831,84.657a42.965,42.965,0,0,1,66.139,50.9,54.433,54.433,0,0,1-12.47,1.505Z" transform="translate(-1)" fill="#61300d"/>
      <path id="Tracé_252" data-name="Tracé 252" d="M30.838-34.048a9.3,9.3,0,0,1,5.084,3.769q1.67,2.618,1.67,12.271,0,7.166-1.633,11.12A11.605,11.605,0,0,1,30.318-.873,22.436,22.436,0,0,1,20.039,1.188q-7.125,0-11.188-2.394A11.61,11.61,0,0,1,3.507-7.069q-1.28-3.47-1.28-12.042v-4.75H17.219v9.76a15.813,15.813,0,0,0,.464,4.954,2,2,0,0,0,2.06,1.058,2.232,2.232,0,0,0,2.3-1.336q.557-1.336.557-6.977v-4.156a12.169,12.169,0,0,0-.779-5.047,3.862,3.862,0,0,0-2.3-2.1,23.732,23.732,0,0,0-5.9-.575V-37a30.211,30.211,0,0,0,6.605-.408,2.884,2.884,0,0,0,1.818-1.781,12.266,12.266,0,0,0,.557-4.3v-3.34q0-3.154-.649-4.156a2.238,2.238,0,0,0-2.022-1,2.209,2.209,0,0,0-2.134,1.058,11.192,11.192,0,0,0-.575,4.509v4.936H2.227v-5.121q0-8.609,3.934-11.634t12.506-3.024q10.725,0,14.547,4.19t3.822,11.644q0,5.043-1.373,7.287A12.274,12.274,0,0,1,30.838-34.048Z" transform="translate(66 141)" fill="#ff7f23"/>
      <path id="Intersection_2" data-name="Intersection 2" d="M-4572.149-767.206a11.611,11.611,0,0,1-5.344-5.863q-1.279-3.471-1.28-12.042v-.869a53.829,53.829,0,0,0,15.542,11,2.08,2.08,0,0,0,1.973.887h.028a53.359,53.359,0,0,0,14.7,3.816,12.039,12.039,0,0,1-4.147,3.4,22.433,22.433,0,0,1-10.28,2.061Q-4568.086-764.813-4572.149-767.206Z" transform="translate(4647 907)" fill="#bd5e1a"/>
    </g>
  </g>
</svg>
