<svg xmlns="http://www.w3.org/2000/svg" width="132.074" height="157.45" viewBox="0 0 132.074 157.45">
  <g id="timerIconLobby" transform="translate(-251.006 4.313)">
    <g id="Groupe_7" data-name="Groupe 7" transform="translate(-32 -45)">
      <g id="Groupe_6" data-name="Groupe 6" transform="translate(283.006 40.688)">
        <path id="Tracé_34" data-name="Tracé 34" d="M93.163,18.812V29.394a67.389,67.389,0,0,0-15.226,0V18.812Z" transform="translate(-19.46 -3.587)" fill="#ff619a"/>
        <path id="Tracé_35" data-name="Tracé 35" d="M136.447,36.826l-7.258,7.258a62.7,62.7,0,0,0-9.085-6.141l8.729-8.729Z" transform="translate(-21.811 -4.167)" fill="#ff619a"/>
        <path id="Tracé_36" data-name="Tracé 36" d="M74.8,2.687V17.913H69.725a2.538,2.538,0,0,1-2.538-2.538V7.763a5.09,5.09,0,0,1,5.075-5.075Z" transform="translate(-18.86 -2.687)" fill="#ffd07a"/>
        <path id="Tracé_37" data-name="Tracé 37" d="M96.15,2.687V17.913H86V2.687Z" transform="translate(-19.909 -2.687)" fill="#ffd07a"/>
        <path id="Tracé_38" data-name="Tracé 38" d="M85.4,2.687V17.913H75.25V2.687Z" transform="translate(-19.31 -2.687)" fill="#ffef97"/>
        <path id="Tracé_39" data-name="Tracé 39" d="M104.363,7.763v7.613a2.538,2.538,0,0,1-2.538,2.538H96.751V2.687h2.538A5.09,5.09,0,0,1,104.363,7.763Z" transform="translate(-20.509 -2.687)" fill="#ffef97"/>
        <path id="Tracé_40" data-name="Tracé 40" d="M134.712,20.259l10.455,10.455a4.923,4.923,0,0,1-3.477,8.4,4.837,4.837,0,0,1-3.477-1.446l-1.421-1.421-7.613-7.613-1.421-1.421a4.923,4.923,0,0,1,3.477-8.4,4.837,4.837,0,0,1,3.477,1.446Z" transform="translate(-22.158 -3.587)" fill="#ffd07a"/>
        <path id="Tracé_41" data-name="Tracé 41" d="M123.391,44.1a65.948,65.948,0,1,1-48.9-14.109,67.389,67.389,0,0,1,15.226,0,65.09,65.09,0,0,1,24.59,7.968,62.7,62.7,0,0,1,9.085,6.141Zm14.54,51.438A55.828,55.828,0,1,0,82.1,151.368,55.828,55.828,0,0,0,137.931,95.541Z" transform="translate(-16.012 -4.186)" fill="#ffc400"/>
        <circle id="Ellipse_9" data-name="Ellipse 9" cx="55.828" cy="55.828" r="55.828" transform="translate(10.263 35.527)" fill="#fff1a8"/>
        <path id="Tracé_42" data-name="Tracé 42" d="M72.263,13.138a5.09,5.09,0,0,1-5.075-5.075v7.613a2.538,2.538,0,0,0,2.538,2.538H74.8V13.138Z" transform="translate(-18.86 -2.987)" fill="#ff9e69"/>
        <path id="Tracé_45" data-name="Tracé 45" d="M99.288,13.138H96.75v5.075h5.075a2.538,2.538,0,0,0,2.538-2.538V8.063A5.09,5.09,0,0,1,99.288,13.138Z" transform="translate(-20.509 -2.987)" fill="#ffd07a"/>
        <path id="Tracé_46" data-name="Tracé 46" d="M140.751,35.154l-1.421-1.421-7.613-7.613L130.3,24.7a4.875,4.875,0,0,1-1.015-5.438,4.9,4.9,0,0,0-1.523,7.976l1.421,1.421,7.613,7.613,1.421,1.421a4.837,4.837,0,0,0,3.477,1.446,4.9,4.9,0,0,0,4.5-2.961,4.926,4.926,0,0,1-1.962.424A4.837,4.837,0,0,1,140.751,35.154Z" transform="translate(-22.157 -3.612)" fill="#ff9e69"/>
        <path id="Tracé_47" data-name="Tracé 47" d="M82.7,40.313A55.828,55.828,0,1,0,138.53,96.14,55.828,55.828,0,0,0,82.7,40.313Zm0,106.581a50.752,50.752,0,1,1,50.752-50.752A50.752,50.752,0,0,1,82.7,146.893Z" transform="translate(-16.612 -4.786)" fill="#fc025c"/>
        <path id="Tracé_56" data-name="Tracé 56" d="M85.55,23.888h7.613V18.812H77.937V29.394c.835-.094,1.688-.152,2.538-.216v-.216a5.075,5.075,0,0,1,5.075-5.075Z" transform="translate(-19.459 -3.587)" fill="#fc025c"/>
        <path id="Tracé_48" data-name="Tracé 48" d="M84.2,45.687a50.458,50.458,0,0,0-29.221,9.3,50.7,50.7,0,0,0,78.742,52.453A50.653,50.653,0,0,0,84.2,45.687Z" transform="translate(-18.111 -5.086)" fill="#fff7cc"/>
        <path id="Tracé_49" data-name="Tracé 49" d="M123.384,44.1a62.7,62.7,0,0,0-9.085-6.141,65.09,65.09,0,0,0-24.59-7.968,67.389,67.389,0,0,0-15.226,0,66.034,66.034,0,1,0,48.9,14.109ZM82.1,158.981a63.441,63.441,0,1,1,63.441-63.441A63.441,63.441,0,0,1,82.1,158.981Z" transform="translate(-16.006 -4.186)" fill="#ff9500"/>
        <path id="Tracé_50" data-name="Tracé 50" d="M82.553,37.625A58.365,58.365,0,1,0,140.918,95.99,58.365,58.365,0,0,0,82.553,37.625Zm0,114.194a55.828,55.828,0,1,1,55.828-55.828A55.828,55.828,0,0,1,82.553,151.818Z" transform="translate(-16.462 -4.636)" fill="#ff9500"/>
        <path id="Tracé_58" data-name="Tracé 58" d="M53.083,88.688c-1.116,0-2.02.628-2.02,1.4v8.416c0,.775.9,1.4,2.02,1.4s2.02-.628,2.02-1.4V90.09C55.1,89.315,54.2,88.688,53.083,88.688Z" transform="translate(46.094 -19.637)" fill="#fc025c"/>
        <path id="Tracé_55" data-name="Tracé 55" d="M136.793,36.826l-7.613-7.613-2.867,2.868,1.487,1.487a5.075,5.075,0,0,1,0,7.176l-1.177,1.177c.982.708,1.974,1.4,2.913,2.162Z" transform="translate(-22.157 -4.167)" fill="#fc025c"/>
        <path id="Tracé_57" data-name="Tracé 57" d="M131.459,24.042l10.15,10.15a3.743,3.743,0,0,0,5.23.1,4.842,4.842,0,0,0-1.434-3.588L134.938,20.259a4.837,4.837,0,0,0-3.477-1.446h-.112a3.791,3.791,0,0,0,.109,5.23Z" transform="translate(-22.383 -3.587)" fill="#ffe9bf"/>
        <path id="Tracé_43" data-name="Tracé 43" d="M86,13.437v5.075H96.15V13.437Z" transform="translate(-19.909 -3.287)" fill="#ff9e69"/>
        <path id="Tracé_44" data-name="Tracé 44" d="M75.25,13.437v5.075H85.4V13.437Z" transform="translate(-19.31 -3.287)" fill="#ffd07a"/>
        <text id="_15" data-name="15" transform="translate(32.994 108.313)" fill="#fc025c" font-size="47" font-family="ArialRoundedMTBold, Arial Rounded MT"><tspan x="0" y="0">15</tspan></text>
      </g>
    </g>
  </g>
</svg>
