<svg xmlns="http://www.w3.org/2000/svg" width="154.79" height="155.656" viewBox="0 0 154.79 155.656">
  <g id="toutPileIcon" transform="translate(21.08 37.576)">
    <g id="Groupe_18" data-name="Groupe 18" transform="translate(-40 -35)">
      <path id="Tracé_60" data-name="Tracé 60" d="M22.36,46.44a3.44,3.44,0,1,0,3.44,3.44A3.44,3.44,0,0,0,22.36,46.44Z" fill="#ee3e54"/>
      <path id="Tracé_62" data-name="Tracé 62" d="M86,22.36A63.64,63.64,0,1,0,149.64,86,63.64,63.64,0,0,0,86,22.36Z" fill="#fff1a8" stroke="#ff9500" stroke-width="5"/>
      <path id="Tracé_66" data-name="Tracé 66" d="M43,146.2a3.44,3.44,0,1,0,3.44,3.44A3.44,3.44,0,0,0,43,146.2Z" fill="#ee3e54"/>
      <path id="Tracé_69" data-name="Tracé 69" d="M137.6,56.76a1.72,1.72,0,1,0,1.72,1.72A1.72,1.72,0,0,0,137.6,56.76Z" fill="#fff"/>
    </g>
    <path id="Tracé_90" data-name="Tracé 90" d="M0,102.893V0H102.893V102.893Z" fill="none"/>
    <g id="Groupe_20" data-name="Groupe 20" transform="translate(-15.235 -37.576)">
      <g id="Groupe_19" data-name="Groupe 19">
        <path id="Tracé_91" data-name="Tracé 91" d="M131.246,96.459v.465a61.984,61.984,0,1,1-.308-6.147c.18,1.86.282,3.771.308,5.682Z" transform="translate(-7.965 -9.109)" fill="#fff7cc"/>
        <path id="Tracé_92" data-name="Tracé 92" d="M53.562,37.571,42.655,74.5a2.565,2.565,0,0,1-2.977,1.808c-.077-.026-.154-.026-.205-.052a2.584,2.584,0,0,1-1.8-3c.026-.077.026-.155.051-.207l9.855-33.369a58.607,58.607,0,0,1,5.98-2.118Z" transform="translate(-9.301 -9.211)" fill="#fff1a8"/>
        <path id="Tracé_93" data-name="Tracé 93" d="M135.7,98.723l-25.022,13.663a2.529,2.529,0,0,1-3.465-1.033,2.563,2.563,0,0,1,1.027-3.487L135.4,93.041c.18,1.86.282,3.771.308,5.682Z" transform="translate(-12.423 -11.373)" fill="#fff1a8"/>
        <path id="Tracé_94" data-name="Tracé 94" d="M129.786,110.807a61.487,61.487,0,0,1-117.844,8.308,62.222,62.222,0,0,1,20.68-71.224A60.545,60.545,0,0,0,31.16,61.27a62.028,62.028,0,0,0,34.088,55.469,61.271,61.271,0,0,0,64.538-5.932Z" transform="translate(-7.969 -9.614)" fill="#fff1a8"/>
        <path id="Tracé_95" data-name="Tracé 95" d="M69.843,101.814a5.23,5.23,0,0,1,1.873-7.077l52.329-30.4a56.512,56.512,0,0,1,4.876,9.117L76.849,103.7a5.13,5.13,0,0,1-7.006-1.885Z" transform="translate(-10.722 -10.255)" fill="#fff1a8"/>
        <ellipse id="Ellipse_10" data-name="Ellipse 10" cx="46.195" cy="46.49" rx="46.195" ry="46.49" transform="translate(15.492 41.325)" fill="#ff619a"/>
        <path id="Tracé_96" data-name="Tracé 96" d="M47.891,57.566,42.655,75.284a2.565,2.565,0,0,1-2.977,1.808c-.077-.026-.154-.026-.205-.052a2.584,2.584,0,0,1-1.8-3c.026-.077.026-.155.051-.207L41.115,62.37a42.977,42.977,0,0,1,6.775-4.8Z" transform="translate(-9.301 -9.991)" fill="#ff6464"/>
        <path id="Tracé_97" data-name="Tracé 97" d="M120.254,101.641a45.659,45.659,0,0,1-.719,6.25l-8.854,4.83a2.529,2.529,0,0,1-3.465-1.033,2.563,2.563,0,0,1,1.027-3.487Z" transform="translate(-12.423 -11.709)" fill="#ff6464"/>
        <path id="Tracé_98" data-name="Tracé 98" d="M93.48,124.181a60,60,0,0,0,16.759-2.35,46.045,46.045,0,0,1-81.212-2.741,46.727,46.727,0,0,1,3.578-47.468A61.736,61.736,0,0,0,93.48,124.181Z" transform="translate(-8.696 -10.539)" fill="#fc025c"/>
        <path id="Tracé_99" data-name="Tracé 99" d="M69.843,102.128a5.23,5.23,0,0,1,1.873-7.077L110.7,72.4a44.369,44.369,0,0,1,4.774,9.169L76.849,104.014a5.13,5.13,0,0,1-7.006-1.885Z" transform="translate(-10.722 -10.569)" fill="#ff6464"/>
        <ellipse id="Ellipse_11" data-name="Ellipse 11" cx="30.797" cy="30.993" rx="30.797" ry="30.993" transform="translate(30.89 56.822)" fill="#fff7cc"/>
        <path id="Tracé_100" data-name="Tracé 100" d="M101.9,89.763,76.848,104.329a5.122,5.122,0,0,1-7.019-1.9,5.19,5.19,0,0,1,1.886-7.064L97.328,80.491a30.036,30.036,0,0,1,4.568,9.272Z" transform="translate(-10.722 -10.884)" fill="#fff1a8"/>
        <ellipse id="Ellipse_12" data-name="Ellipse 12" cx="15.398" cy="15.497" rx="15.398" ry="15.497" transform="translate(46.288 72.318)" fill="#ff8b7b"/>
        <path id="Tracé_101" data-name="Tracé 101" d="M71.72,95.693a5.182,5.182,0,0,0-.02,8.97,5.1,5.1,0,0,0,5.152-.023L87.77,98.3a15.458,15.458,0,0,0-3.937-9.644Z" transform="translate(-10.721 -11.203)" fill="#ff6464"/>
        <path id="Tracé_102" data-name="Tracé 102" d="M72.441,98.223h0a5.183,5.183,0,0,1-1.879-7.056l46.2-80.522a5.115,5.115,0,0,1,7.011-1.891h0a5.184,5.184,0,0,1,1.879,7.056l-46.2,80.522A5.115,5.115,0,0,1,72.441,98.223Z" transform="translate(-10.755 -8.061)" fill="#f9d423"/>
        <path id="Tracé_103" data-name="Tracé 103" d="M109.467,47.441l17.965-31.316,34.051,36.159Z" transform="translate(-12.539 -8.376)" fill="#ff619a"/>
        <path id="Tracé_104" data-name="Tracé 104" d="M131.666,90.935,149.651,75.25l5.133,25.828Z" transform="translate(-13.539 -10.68)" fill="#ff619a"/>
        <path id="Tracé_105" data-name="Tracé 105" d="M42.968,43.49l2.6-30.053L71.229,34.1Z" transform="translate(-9.542 -8.271)" fill="#ff619a"/>
        <path id="Tracé_106" data-name="Tracé 106" d="M126.341,13.256a5.271,5.271,0,0,1-.693,2.583l-46.2,80.53a5.114,5.114,0,0,1-6.9,1.7A5.183,5.183,0,0,1,70.573,91.2l1.873-3.28a5.115,5.115,0,0,0,7.006-1.885l44.322-77.25a5.172,5.172,0,0,1,2.566,4.468Z" transform="translate(-10.76 -8.09)" fill="#f9b53d"/>
        <path id="Tracé_107" data-name="Tracé 107" d="M161.483,52.284l-52.021-4.856,17.965-31.3,3,3.2A18.181,18.181,0,0,0,131.2,35.91a17.956,17.956,0,0,0,13.886,8.961l10.317.956Z" transform="translate(-12.538 -8.376)" fill="#fc025c"/>
        <path id="Tracé_108" data-name="Tracé 108" d="M154.784,101.22,131.661,91.07,145.622,78.9a12.937,12.937,0,0,0,7.263,15.187l.539.232Z" transform="translate(-13.539 -10.822)" fill="#fc025c"/>
        <path id="Tracé_109" data-name="Tracé 109" d="M71.229,34.381l-28.256,9.4,2-23.116a12.9,12.9,0,0,0,6.233,8.239,12.76,12.76,0,0,0,10.243.982l2.977-.981Z" transform="translate(-9.542 -8.553)" fill="#fc025c"/>
        <path id="Tracé_110" data-name="Tracé 110" d="M110.067,111.3a2.567,2.567,0,0,1-2.406-1.68,2.594,2.594,0,0,1,.725-2.855l38.5-33.576a2.556,2.556,0,0,1,3.621.261,2.6,2.6,0,0,1-.259,3.644l-38.5,33.576a2.557,2.557,0,0,1-1.681.63Z" transform="translate(-12.45 -10.575)" fill="#f9d423"/>
        <path id="Tracé_111" data-name="Tracé 111" d="M40.191,75.314a2.154,2.154,0,0,1-.223,0,2.576,2.576,0,0,1-2.343-2.583,2.208,2.208,0,0,1,0-.227l5.133-59.4a2.569,2.569,0,1,1,5.133.227,2.21,2.21,0,0,1,0,.227l-5.133,59.4A2.573,2.573,0,0,1,40.191,75.314Z" transform="translate(-9.301 -8.161)" fill="#f9d423"/>
        <path id="Tracé_112" data-name="Tracé 112" d="M88.51,124.79a30.315,30.315,0,0,1-17.4,5.424,30.9,30.9,0,0,1-30.8-30.993,30.457,30.457,0,0,1,.462-5.346A61.635,61.635,0,0,0,88.509,124.79Z" transform="translate(-9.423 -11.406)" fill="#fff1a8"/>
      </g>
    </g>
    <path id="Tracé_61" data-name="Tracé 61" d="M132.44,20.64a1.72,1.72,0,1,0,1.72,1.72A1.72,1.72,0,0,0,132.44,20.64Z" transform="translate(-40 -35)" fill="#f1bc19"/>
    <path id="Tracé_63" data-name="Tracé 63" d="M142.76,18.92a6.88,6.88,0,1,0,6.88,6.88,6.88,6.88,0,0,0-6.88-6.88Z" transform="translate(-40 -35)" fill="#f1bc19"/>
    <path id="Tracé_64" data-name="Tracé 64" d="M149.64,37.84a3.44,3.44,0,1,0,3.44,3.44A3.44,3.44,0,0,0,149.64,37.84Z" transform="translate(-40 -35)" fill="#ee3e54"/>
    <path id="Tracé_65" data-name="Tracé 65" d="M139.32,127.28a3.44,3.44,0,1,0,3.44,3.44A3.44,3.44,0,0,0,139.32,127.28ZM25.8,101.48a6.88,6.88,0,1,0,6.88,6.88A6.88,6.88,0,0,0,25.8,101.48Z" transform="translate(-40 -35)" fill="#fbcd59"/>
    <path id="Tracé_67" data-name="Tracé 67" d="M31.82,87.72a4.3,4.3,0,1,0,4.3,4.3A4.3,4.3,0,0,0,31.82,87.72Z" transform="translate(-40 -35)" fill="#fff"/>
    <path id="Tracé_68" data-name="Tracé 68" d="M36.12,113.52a1.72,1.72,0,1,0,1.72,1.72A1.72,1.72,0,0,0,36.12,113.52Z" transform="translate(-40 -35)" fill="#f1bc19"/>
  </g>
</svg>
