<svg xmlns="http://www.w3.org/2000/svg" width="134.16" height="134.16" viewBox="0 0 134.16 134.16">
  <g id="winIcon" transform="translate(67.08 134.08)">
    <g id="Groupe_22" data-name="Groupe 22">
      <g id="Groupe_21" data-name="Groupe 21">
        <g id="Groupe_18" data-name="Groupe 18" transform="translate(-86 -153)">
          <path id="Tracé_60" data-name="Tracé 60" d="M22.36,46.44a3.44,3.44,0,1,0,3.44,3.44A3.44,3.44,0,0,0,22.36,46.44Z" fill="#ee3e54"/>
          <path id="Tracé_61" data-name="Tracé 61" d="M132.44,20.64a1.72,1.72,0,1,0,1.72,1.72A1.72,1.72,0,0,0,132.44,20.64Z" fill="#f1bc19"/>
          <path id="Tracé_62" data-name="Tracé 62" d="M86,22.36A63.64,63.64,0,1,0,149.64,86,63.64,63.64,0,0,0,86,22.36Z" fill="#fff1a8" stroke="#ff9500" stroke-width="5"/>
          <path id="Tracé_63" data-name="Tracé 63" d="M142.76,18.92a6.88,6.88,0,1,0,6.88,6.88,6.88,6.88,0,0,0-6.88-6.88Z" fill="#f1bc19"/>
          <path id="Tracé_64" data-name="Tracé 64" d="M149.64,37.84a3.44,3.44,0,1,0,3.44,3.44A3.44,3.44,0,0,0,149.64,37.84Z" fill="#ee3e54"/>
          <path id="Tracé_65" data-name="Tracé 65" d="M139.32,127.28a3.44,3.44,0,1,0,3.44,3.44A3.44,3.44,0,0,0,139.32,127.28ZM25.8,101.48a6.88,6.88,0,1,0,6.88,6.88A6.88,6.88,0,0,0,25.8,101.48Z" fill="#fbcd59"/>
          <path id="Tracé_66" data-name="Tracé 66" d="M43,146.2a3.44,3.44,0,1,0,3.44,3.44A3.44,3.44,0,0,0,43,146.2Z" fill="#ee3e54"/>
          <path id="Tracé_67" data-name="Tracé 67" d="M31.82,87.72a4.3,4.3,0,1,0,4.3,4.3A4.3,4.3,0,0,0,31.82,87.72Z" fill="#fff"/>
          <path id="Tracé_68" data-name="Tracé 68" d="M36.12,113.52a1.72,1.72,0,1,0,1.72,1.72A1.72,1.72,0,0,0,36.12,113.52Z" fill="#f1bc19"/>
          <path id="Tracé_69" data-name="Tracé 69" d="M137.6,56.76a1.72,1.72,0,1,0,1.72,1.72A1.72,1.72,0,0,0,137.6,56.76Z" fill="#fff"/>
        </g>
        <g id="cup" transform="translate(-86 -106)">
          <rect id="Rectangle_19" data-name="Rectangle 19" width="10.75" height="26.875" transform="translate(80.625 40.313)" fill="#f9b53d"/>
          <path id="Tracé_114" data-name="Tracé 114" d="M91.375,40.313V53.75A5.391,5.391,0,0,0,86,59.125v8.063H80.625V40.313Z" fill="#fc913a"/>
          <path id="Tracé_115" data-name="Tracé 115" d="M94.063,8.063v10.75h29.563A16.125,16.125,0,0,1,107.5,34.938H83.313v10.75H107.5a26.875,26.875,0,0,0,26.875-26.875V8.063Z" fill="#f9d423"/>
          <path id="Tracé_116" data-name="Tracé 116" d="M107.5,45.688a26.792,26.792,0,0,0,20.4-9.406A5.356,5.356,0,0,1,126.554,30,26.679,26.679,0,0,0,129,18.812V13.437h-5.375a5.391,5.391,0,0,1-5.375-5.375H94.062v10.75h29.563A16.125,16.125,0,0,1,107.5,34.937H83.312v10.75Z" fill="#f9b53d"/>
          <path id="Tracé_117" data-name="Tracé 117" d="M77.938,8.063v10.75H48.375A16.125,16.125,0,0,0,64.5,34.938H88.688v10.75H64.5A26.875,26.875,0,0,1,37.625,18.813V8.063Z" fill="#f9b53d"/>
          <path id="Tracé_118" data-name="Tracé 118" d="M64.5,45.688a26.792,26.792,0,0,1-20.4-9.406A5.356,5.356,0,0,0,45.446,30,26.679,26.679,0,0,1,43,18.812V13.437h5.375A5.391,5.391,0,0,0,53.75,8.062H77.938v10.75H48.375A16.125,16.125,0,0,0,64.5,34.937H88.688v10.75Z" fill="#fc913a"/>
          <path id="Tracé_158" data-name="Tracé 158" d="M86,51.063h0A26.875,26.875,0,0,1,59.125,24.188V8.063h53.75V24.188A26.875,26.875,0,0,1,86,51.063Z" fill="#f9d423"/>
          <path id="Tracé_159" data-name="Tracé 159" d="M72.563,67.188H99.438a5.375,5.375,0,0,1,5.375,5.375v10.75H67.188V72.563A5.375,5.375,0,0,1,72.563,67.188Z" fill="#f9d423"/>
          <path id="Tracé_160" data-name="Tracé 160" d="M99.787,47.246A26.862,26.862,0,0,1,59.125,24.188V8.063h21.5V21.5A26.9,26.9,0,0,0,99.787,47.246Z" fill="#f9b53d"/>
          <path id="Tracé_161" data-name="Tracé 161" d="M86,17.676l3.494,7.079,7.81,1.134L91.652,31.4l1.333,7.778L86,35.5l-6.985,3.671L80.348,31.4,74.7,25.889l7.81-1.134Z" fill="#ff619a"/>
          <path id="Tracé_162" data-name="Tracé 162" d="M79.012,39.184l1.344-7.794-5.671-5.509,6.181-.887a26.209,26.209,0,0,0,4.058,11.073Z" fill="#fc025c"/>
          <path id="Tracé_163" data-name="Tracé 163" d="M104.813,75.25v8.063H67.188V72.563a5.391,5.391,0,0,1,5.375-5.375H75.6a10.96,10.96,0,0,0,2.795,4.918A10.817,10.817,0,0,0,86,75.25Z" fill="#f9b53d"/>
        </g>
      </g>
    </g>
  </g>
</svg>
