<svg xmlns="http://www.w3.org/2000/svg" width="558.459" height="290.497" viewBox="0 0 558.459 290.497">
  <g id="LogoLobby" transform="translate(-1709.766 -641.589)">
    <g id="TOUT" transform="translate(1709.766 641.589)">
      <g id="Tracé_255" data-name="Tracé 255" transform="translate(0 16.298)" fill="#fff">
        <path d="M40.716,120.117,55.6,29.213H22.787l4.8-25.576h97.8l-2.936,25.576H89.639l-12.618,90.9Zm315.568.852q-2.856,0-5.64-.107t-5.5-.32q-2.712-.213-5.351-.533t-5.2-.745q-2.564-.425-4.986-1.031t-4.7-1.39q-2.276-.784-4.409-1.747t-4.116-2.1a33,33,0,0,1-3.753-2.506,31.753,31.753,0,0,1-3.321-2.958,32.325,32.325,0,0,1-2.888-3.4,34.739,34.739,0,0,1-2.455-3.844A31.194,31.194,0,0,1,302,95.935a38.832,38.832,0,0,1-1.425-4.916,49.84,49.84,0,0,1-.887-5.472q-.309-2.869-.354-6.014l-1.077-75.9h33.4l2.963,75.736a13.784,13.784,0,0,0,.221,2.005,11.393,11.393,0,0,0,.5,1.829,10.14,10.14,0,0,0,.779,1.651,9.9,9.9,0,0,0,1.059,1.472,11.4,11.4,0,0,0,1.328,1.3,13.089,13.089,0,0,0,1.586,1.126,15.888,15.888,0,0,0,1.845.954,19.976,19.976,0,0,0,2.1.781q1.116.348,2.343.608t2.566.435q1.339.174,2.788.261t3.01.087q1.56,0,3-.087t2.761-.261q1.32-.174,2.52-.435t2.279-.608a17.992,17.992,0,0,0,2.02-.781,13.93,13.93,0,0,0,1.744-.954,11.25,11.25,0,0,0,1.467-1.126,9.74,9.74,0,0,0,1.191-1.3,8.567,8.567,0,0,0,.9-1.472,9.069,9.069,0,0,0,.6-1.651,10.672,10.672,0,0,0,.306-1.829,13.537,13.537,0,0,0,.009-2.005L368.5,3.637h33.4l6.947,75.9q.288,3.145.282,6.014a48.136,48.136,0,0,1-.308,5.472,36.154,36.154,0,0,1-.905,4.916,27.974,27.974,0,0,1-1.507,4.349,30.274,30.274,0,0,1-2.049,3.844,27.718,27.718,0,0,1-2.528,3.4,27.113,27.113,0,0,1-3.008,2.958A28.447,28.447,0,0,1,395.343,113a42.278,42.278,0,0,1-3.888,2.1q-2.025.963-4.206,1.747t-4.523,1.39q-2.341.606-4.836,1.031t-5.1.745q-2.6.32-5.3.533t-5.5.32Q359.186,120.97,356.284,120.97Zm125.154-.852-12.618-90.9H436.008L433.072,3.637h97.8l4.8,25.576H502.86l14.883,90.9Z" stroke="none"/>
        <path d="M 356.5126037597656 125.2954864501953 C 354.5404968261719 125.2954864501953 352.5854187011719 125.2579116821289 350.6506958007812 125.1830062866211 C 348.7162475585938 125.1081237792969 346.8024291992188 124.9959335327148 344.9126281738281 124.8467330932617 C 343.0232238769531 124.6975326538086 341.1580810546875 124.5113677978516 339.3206481933594 124.2884902954102 C 337.4837646484375 124.0656814575195 335.6746826171875 123.8062057495117 333.8969421386719 123.5103759765625 C 332.0371398925781 123.2008895874023 330.2212829589844 122.8228225708008 328.4525756835938 122.3773193359375 C 326.6848754882812 121.9320678710938 324.9645385742188 121.4195404052734 323.2947692871094 120.8408889770508 C 321.6263427734375 120.2626953125 320.0085754394531 119.6185836791992 318.4446105957031 118.9097137451172 C 316.8821105957031 118.2015380859375 315.3735961914062 117.4288787841797 313.9220275878906 116.5929412841797 C 312.4148559570312 115.7249908447266 310.9862670898438 114.7675704956055 309.6384582519531 113.7231597900391 C 308.2926330566406 112.6802444458008 307.0276794433594 111.5508651733398 305.845703125 110.3375244140625 C 304.6656799316406 109.126220703125 303.5687255859375 107.8315277099609 302.5567626953125 106.4560241699219 C 301.5466918945312 105.083122253418 300.6216125488281 103.6300277709961 299.7833251953125 102.0993041992188 C 298.9661254882812 100.60693359375 298.2471313476562 99.00951385498047 297.626953125 97.31109619140625 C 297.00830078125 95.61669158935547 296.4881591796875 93.82224273681641 296.0670166015625 91.93179321289062 C 295.64697265625 90.04635620117188 295.3255310058594 88.06595611572266 295.1030578613281 85.99468231201172 C 294.8812866210938 83.92943572998047 294.7579650878906 81.77436828613281 294.7334594726562 79.53359985351562 L 293.902587890625 3.636546850204468 L 293.8627319335938 2.207970828749239e-05 L 298.2037963867188 2.207970828749239e-05 L 331.5159606933594 2.207970828749239e-05 L 335.8569946289062 2.207970828749239e-05 L 336.0110778808594 3.636546850204468 L 339.2195434570312 79.37258148193359 C 339.2398681640625 79.85228729248047 339.2872924804688 80.30462646484375 339.3622131347656 80.73086547851562 C 339.4372253417969 81.15737915039062 339.5398254394531 81.55772399902344 339.6704711914062 81.93319702148438 C 339.8012084960938 82.30886840820312 339.9599914550781 82.65960693359375 340.1473999023438 82.98671722412109 C 340.3347778320312 83.31398010253906 340.5508117675781 83.6175537109375 340.7958374023438 83.89873504638672 C 341.051025390625 84.19155120849609 341.3365783691406 84.46640777587891 341.6539001464844 84.72410583496094 C 341.9713439941406 84.98187255859375 342.3205261230469 85.22245788574219 342.7028198242188 85.44661712646484 C 343.0851440429688 85.67083740234375 343.5006713867188 85.87861633300781 343.9506530761719 86.07072448730469 C 344.4007263183594 86.26288604736328 344.8853149414062 86.43936157226562 345.4056701660156 86.60092926025391 C 346.0183715820312 86.79116058349609 346.669677734375 86.95798492431641 347.3583374023438 87.10122680664062 C 348.047119140625 87.24449920654297 348.7732238769531 87.36415863037109 349.5352783203125 87.46005249023438 C 350.2974243164062 87.55595397949219 351.0954284667969 87.6280517578125 351.9279479980469 87.67617034912109 C 352.7605590820312 87.72431182861328 353.6276245117188 87.74845886230469 354.5278015136719 87.74845886230469 C 355.4279479980469 87.74845886230469 356.2925109863281 87.72431182861328 357.1199645996094 87.67617034912109 C 357.9474792480469 87.6280517578125 358.7378845214844 87.55595397949219 359.4898681640625 87.46005249023438 C 360.24169921875 87.36415863037109 360.9551391601562 87.24449920654297 361.6288146972656 87.10122680664062 C 362.3023071289062 86.95798492431641 362.9360046386719 86.79116058349609 363.5285034179688 86.60092926025391 C 364.0317993164062 86.43936157226562 364.4976806640625 86.26288604736328 364.927490234375 86.07072448730469 C 365.3571472167969 85.87861633300781 365.7507019042969 85.67083740234375 366.1094665527344 85.44661712646484 C 366.4680480957031 85.22245788574219 366.7917785644531 84.98187255859375 367.0819702148438 84.72410583496094 C 367.3720092773438 84.46640777587891 367.6285095214844 84.19155120849609 367.8527221679688 83.89873504638672 C 368.0680847167969 83.6175537109375 368.2519836425781 83.31398010253906 368.4048461914062 82.98671722412109 C 368.5575866699219 82.65960693359375 368.6792907714844 82.30886840820312 368.7703247070312 81.93319702148438 C 368.8612976074219 81.55772399902344 368.9215393066406 81.15737915039062 368.951416015625 80.73086547851562 C 368.9813232421875 80.30462646484375 368.9808349609375 79.85228729248047 368.9504699707031 79.37258148193359 L 364.15185546875 3.636546850204468 L 363.9214477539062 2.207970828749239e-05 L 368.2625122070312 2.207970828749239e-05 L 401.5747375488281 2.207970828749239e-05 L 405.9158020019531 2.207970828749239e-05 L 406.2604675292969 3.636546850204468 L 413.4536743164062 79.53359985351562 C 413.6659851074219 81.77438354492188 413.7705078125 83.92946624755859 413.7670593261719 85.99472808837891 C 413.763671875 88.06600189208984 413.6515502929688 90.04640197753906 413.4308166503906 91.93184661865234 C 413.2095947265625 93.82227325439453 412.8790893554688 95.61671447753906 412.4395751953125 97.31109619140625 C 411.9989624023438 99.00951385498047 411.4488525390625 100.6069030761719 410.7893981933594 102.099235534668 C 410.1129455566406 103.6299667358398 409.3414611816406 105.0830841064453 408.4765319824219 106.4559783935547 C 407.6099853515625 107.8315124511719 406.64990234375 109.1262054443359 405.5980224609375 110.337516784668 C 404.5443420410156 111.5508651733398 403.3988037109375 112.6802368164062 402.1632385253906 113.7231597900391 C 400.9259033203125 114.7675704956055 399.5985412597656 115.7249908447266 398.18310546875 116.5929412841797 C 396.8204650878906 117.4285354614258 395.3961791992188 118.2009201049805 393.9130554199219 118.9088745117188 C 392.4284973144531 119.6175003051758 390.8853454589844 120.2614669799805 389.286376953125 120.8395462036133 C 387.6861877441406 121.4180908203125 386.030517578125 121.9305648803711 384.3223266601562 122.3758163452148 C 382.613037109375 122.8213424682617 380.8514709472656 123.199462890625 379.0406494140625 123.5090713500977 C 377.3092346191406 123.8051147460938 375.5367126464844 124.0647506713867 373.7266540527344 124.287727355957 C 371.9160766601562 124.5107727050781 370.0679931640625 124.6970748901367 368.1859130859375 124.8463668823242 C 366.3034973144531 124.9956893920898 364.38720703125 125.1079711914062 362.4405212402344 125.1829223632812 C 360.4936218261719 125.2578659057617 358.5165100097656 125.2954864501953 356.5126037597656 125.2954864501953 Z M 302.6720581054688 7.292919635772705 L 303.93212890625 79.53359985351562 C 303.9658813476562 81.46634674072266 304.0787048339844 83.31439208984375 304.2703247070312 85.07429504394531 C 304.4624633789062 86.83858489990234 304.7337341308594 88.51383972167969 305.083740234375 90.09665679931641 C 305.4345092773438 91.68299865722656 305.8643798828125 93.17607879638672 306.3727416992188 94.57249450683594 C 306.8821716308594 95.97165679931641 307.4703063964844 97.27340698242188 308.1366271972656 98.47440338134766 C 308.7937622070312 99.6588134765625 309.5048522949219 100.7710952758789 310.27294921875 101.814079284668 C 311.0421447753906 102.8585815429688 311.8683776855469 103.833381652832 312.7548217773438 104.7414093017578 C 313.6423950195312 105.6505813598633 314.5900268554688 106.4926223754883 315.6009826660156 107.2705230712891 C 316.613037109375 108.0492553710938 317.6883239746094 108.763557434082 318.8298950195312 109.4164505004883 C 320.0139465332031 110.093620300293 321.2477111816406 110.7200317382812 322.5289611816406 111.2947540283203 C 323.8110961914062 111.8699111938477 325.1405334472656 112.3932113647461 326.5147399902344 112.8637084960938 C 327.8898315429688 113.3345184326172 329.3095397949219 113.7523803710938 330.7712707519531 114.1163787841797 C 332.2337646484375 114.4805603027344 333.7381286621094 114.790771484375 335.2818298339844 115.0461273193359 C 336.9085998535156 115.3152313232422 338.565673828125 115.5512619018555 340.2498779296875 115.7539291381836 C 341.9345703125 115.956657409668 343.6463012695312 116.1260070800781 345.3818969726562 116.2616882324219 C 347.1177978515625 116.3973922729492 348.8774108886719 116.4994354248047 350.6575622558594 116.5675354003906 C 352.4378967285156 116.6356582641602 354.2386779785156 116.6698379516602 356.056640625 116.6698379516602 C 357.9049377441406 116.6698379516602 359.7265930175781 116.6356887817383 361.5184936523438 116.5676193237305 C 363.3102111816406 116.4995651245117 365.0720520019531 116.3976058959961 366.8007202148438 116.2620010375977 C 368.529052734375 116.1264190673828 370.2242126464844 115.9572143554688 371.8829956054688 115.7546615600586 C 373.5412902832031 115.5521469116211 375.1630859375 115.3163070678711 376.7453002929688 115.0474243164062 C 378.2472534179688 114.7921676635742 379.7059936523438 114.4820098876953 381.1190185546875 114.1178283691406 C 382.5313415527344 113.7538375854492 383.8977661132812 113.3359222412109 385.2158813476562 112.8650054931641 C 386.5332336425781 112.3944244384766 387.8021240234375 111.870964050293 389.0201416015625 111.2955703735352 C 390.2372741699219 110.7206420898438 391.4035034179688 110.0939559936523 392.5164184570312 109.4164505004883 C 393.5889892578125 108.763557434082 394.5887145996094 108.0492553710938 395.5184631347656 107.2705230712891 C 396.4471740722656 106.4926223754883 397.3058776855469 105.6505813598633 398.0972900390625 104.7414093017578 C 398.8876953125 103.833366394043 399.6109008789062 102.8585662841797 400.2696533203125 101.8140487670898 C 400.9275207519531 100.7710647583008 401.5209655761719 99.65876007080078 402.0528564453125 98.47432708740234 C 402.5922546386719 97.27337646484375 403.0426940917969 95.97164916992188 403.4041442871094 94.57249450683594 C 403.7649536132812 93.17608642578125 404.0369567871094 91.68301391601562 404.2200622558594 90.09667205810547 C 404.4027404785156 88.51384735107422 404.4969177246094 86.83859252929688 404.5025024414062 85.07430267333984 C 404.5081176757812 83.31439971923828 404.4256286621094 81.46634674072266 404.2550048828125 79.53359985351562 L 397.8775329589844 7.292919635772705 L 373.1130065917969 7.292919635772705 L 378.1481018066406 79.37258148193359 C 378.2121276855469 80.28907012939453 378.2072143554688 81.17393493652344 378.1337280273438 82.02573394775391 C 378.06005859375 82.87854766845703 377.9176635742188 83.69813537597656 377.7066040039062 84.48297119140625 C 377.495361328125 85.26869201660156 377.2154541015625 86.01951599121094 376.8671264648438 86.73398590087891 C 376.5184326171875 87.44915771484375 376.1012878417969 88.12781524658203 375.6158447265625 88.76847076416016 C 375.138671875 89.39826965332031 374.6017456054688 89.98902893066406 374.0063171386719 90.53983306884766 C 373.4104309082031 91.09105682373047 372.7560729980469 91.60221862792969 372.0443725585938 92.07237243652344 C 371.3322143554688 92.5428466796875 370.5628356933594 92.97222900390625 369.7374267578125 93.35961151123047 C 368.9115600585938 93.74720001220703 368.0297546386719 94.09271240234375 367.0932312011719 94.39525604248047 C 366.2529296875 94.66670989990234 365.3676452636719 94.90480041503906 364.439208984375 95.10924530029297 C 363.510498046875 95.31375885009766 362.5386657714844 95.48458099365234 361.5255432128906 95.62147521972656 C 360.51220703125 95.75838470458984 359.4577026367188 95.861328125 358.3637390136719 95.93003845214844 C 357.269775390625 95.99876403808594 356.136474609375 96.03324890136719 354.9657592773438 96.03324890136719 C 353.7950439453125 96.03324890136719 352.6581420898438 95.99876403808594 351.5568542480469 95.93003845214844 C 350.4557189941406 95.861328125 349.3902893066406 95.75838470458984 348.3624877929688 95.62147521972656 C 347.3348693847656 95.48458099365234 346.344970703125 95.31375885009766 345.3945617675781 95.10924530029297 C 344.4444580078125 94.90480041503906 343.5339965820312 94.66670989990234 342.6649780273438 94.39525604248047 C 341.6964721679688 94.09269714355469 340.778076171875 93.74716949462891 339.9112548828125 93.35958099365234 C 339.0448608398438 92.97217559814453 338.2300415039062 92.54280090332031 337.4682006835938 92.07232666015625 C 336.7068176269531 91.60215759277344 335.9984436035156 91.09101104736328 335.3443298339844 90.53980255126953 C 334.6907043457031 89.98900604248047 334.0913391113281 89.39825439453125 333.5475769042969 88.76847076416016 C 332.9944458007812 88.12784576416016 332.5054626464844 87.44920349121094 332.0811767578125 86.73404693603516 C 331.6572570800781 86.01959228515625 331.2979736328125 85.26876831054688 331.0036926269531 84.48305511474609 C 330.709716796875 83.69819641113281 330.4805908203125 82.87860870361328 330.3167724609375 82.02577972412109 C 330.1531982421875 81.17398071289062 330.0548095703125 80.28908538818359 330.0219116210938 79.37258148193359 L 327.4365234375 7.292919635772705 L 302.6720581054688 7.292919635772705 Z M 523.1957397460938 124.4379577636719 L 518.4505615234375 124.4379577636719 L 482.0371704101562 124.4379577636719 L 477.2919921875 124.4379577636719 L 476.706298828125 120.1174240112305 L 464.8986206054688 33.01000213623047 L 436.4436340332031 33.01000213623047 L 431.9953918457031 33.01000213623047 L 431.5718078613281 29.21255874633789 L 428.71923828125 3.636546850204468 L 428.3136596679688 2.207970828749239e-05 L 432.6546936035156 2.207970828749239e-05 L 530.1874389648438 2.207970828749239e-05 L 534.5284423828125 2.207970828749239e-05 L 535.2230224609375 3.636546850204468 L 540.10791015625 29.21255874633789 L 540.8331909179688 33.01000213623047 L 536.3849487304688 33.01000213623047 L 507.9299926757812 33.01000213623047 L 522.4743041992188 120.1174240112305 L 523.1957397460938 124.4379577636719 Z M 485.5584716796875 115.8223876953125 L 512.32275390625 115.8223876953125 L 498.4240417480469 29.21255874633789 L 497.8180236816406 25.43611335754395 L 502.2416687011719 25.43611335754395 L 530.539306640625 25.43611335754395 L 527.19189453125 7.292919635772705 L 437.8565368652344 7.292919635772705 L 439.9979248046875 25.43611335754395 L 468.2955627441406 25.43611335754395 L 472.7192077636719 25.43611335754395 L 473.2556457519531 29.21255874633789 L 485.5584716796875 115.8223876953125 Z M 81.16717529296875 124.4379577636719 L 76.42200469970703 124.4379577636719 L 40.00861740112305 124.4379577636719 L 35.26344299316406 124.4379577636719 L 35.98484039306641 120.1174240112305 L 50.52920532226562 33.01000213623047 L 22.07424163818359 33.01000213623047 L 17.62598991394043 33.01000213623047 L 18.35127258300781 29.21255874633789 L 23.23609733581543 3.636546850204468 L 23.93064880371094 2.207970828749239e-05 L 28.27169418334961 2.207970828749239e-05 L 125.8044052124023 2.207970828749239e-05 L 130.1454620361328 2.207970828749239e-05 L 129.7398681640625 3.636546850204468 L 126.8873443603516 29.21255874633789 L 126.4638137817383 33.01000213623047 L 122.0155639648438 33.01000213623047 L 93.56059265136719 33.01000213623047 L 81.75283050537109 120.1174240112305 L 81.16717529296875 124.4379577636719 Z M 46.1363639831543 115.8223876953125 L 72.90065765380859 115.8223876953125 L 85.20350646972656 29.21255874633789 L 85.73995208740234 25.43611335754395 L 90.16360473632812 25.43611335754395 L 118.4612274169922 25.43611335754395 L 120.6026077270508 7.292919635772705 L 31.26721954345703 7.292919635772705 L 27.91985321044922 25.43611335754395 L 56.21747589111328 25.43611335754395 L 60.64112854003906 25.43611335754395 L 60.03510284423828 29.21255874633789 L 46.1363639831543 115.8223876953125 Z" stroke="none" fill="#ff9500"/>
      </g>
      <g id="OLogo" transform="translate(122.084 0)">
        <g id="Groupe_18" data-name="Groupe 18" transform="translate(0 18.664)">
          <g id="Tracé_62" data-name="Tracé 62" transform="translate(0 0)" fill="#fff1a8">
            <path d="M79.207,2.025A77.137,77.137,0,0,0,53.978,6.253,73.815,73.815,0,0,0,32.505,17.918,64.707,64.707,0,0,0,16.826,35.6,54.837,54.837,0,0,0,9.314,57.887,50.2,50.2,0,0,0,12.2,80.91,53.413,53.413,0,0,0,24.94,100.281a62.433,62.433,0,0,0,20.8,13.362A72.453,72.453,0,0,0,72.432,118.6,77.067,77.067,0,0,0,99.7,113.642a72.854,72.854,0,0,0,22.356-13.362A62.832,62.832,0,0,0,137.043,80.91a53.354,53.354,0,0,0,5.563-23.023A50.181,50.181,0,0,0,137.685,35.6a54.647,54.647,0,0,0-13.624-17.68A63.7,63.7,0,0,0,103.944,6.253,72.851,72.851,0,0,0,79.207,2.025Z" stroke="none"/>
            <path d="M 72.29212188720703 121.0043334960938 C 69.85256958007812 121.0043334960938 67.43788146972656 120.8953170776367 65.05262756347656 120.6780700683594 C 62.66809844970703 120.4608764648438 60.3137092590332 120.1356048583984 57.99400329589844 119.7031402587891 C 55.67568969726562 119.2709350585938 53.39270401000977 118.7317886352539 51.14956283569336 118.0867004394531 C 48.90840530395508 117.4421691894531 46.70768356323242 116.6920700073242 44.55184173583984 115.8374786376953 C 43.51665115356445 115.427116394043 42.49344635009766 114.9926452636719 41.48397064208984 114.5349502563477 C 40.47513961791992 114.0775604248047 39.48009872436523 113.5970001220703 38.50057601928711 113.09423828125 C 37.52174377441406 112.5918273925781 36.55847549438477 112.0672378540039 35.61251831054688 111.5214233398438 C 34.66727447509766 110.9760208129883 33.73936080932617 110.4094467163086 32.83051681518555 109.8226470947266 C 31.93119049072266 109.2419662475586 31.04861450195312 108.640251159668 30.18425178527832 108.018684387207 C 29.32062530517578 107.3976593017578 28.4752311706543 106.7568588256836 27.6495189666748 106.0974960327148 C 26.82455825805664 105.4387283325195 26.0192928314209 104.7614517211914 25.23515892028809 104.0668792724609 C 24.45177841186523 103.3729705810547 23.68952941894531 102.6618423461914 22.9498462677002 101.9346771240234 C 22.21089935302734 101.2082595825195 21.49297904968262 100.4643478393555 20.79721832275391 99.70439910888672 C 20.10219192504883 98.94526672363281 19.42930793762207 98.17015838623047 18.77968406677246 97.38053894042969 C 18.13077354431152 96.59178161621094 17.50510597229004 95.78853607177734 16.90378570556641 94.97228240966797 C 16.30315589904785 94.15692901611328 15.72683715820312 93.32860565185547 15.17594337463379 92.48871612548828 C 14.62032413482666 91.64161682128906 14.08936595916748 90.78092193603516 13.58384037017822 89.90823364257812 C 13.078932762146 89.03659820556641 12.59940910339355 88.15305328369141 12.14602851867676 87.25918579101562 C 11.69321441650391 86.36642456054688 11.26649570465088 85.46340179443359 10.86662006378174 84.55171203613281 C 10.46725273132324 83.64118194580078 10.09467315673828 82.72203826904297 9.749618530273438 81.79585266113281 C 9.03309154510498 79.87257385253906 8.434362411499023 77.92475891113281 7.953415393829346 75.95614624023438 C 7.47380256652832 73.99301147460938 7.111353397369385 72.00932312011719 6.866021156311035 70.00877380371094 C 6.62138557434082 68.01390075683594 6.493218898773193 66.00238037109375 6.481454849243164 63.97783660888672 C 6.469725608825684 61.9591178894043 6.573729515075684 59.92755889892578 6.793383121490479 57.88670349121094 C 7.012398719787598 55.8517951965332 7.343141078948975 53.837890625 7.783980369567871 51.84822463989258 C 8.223565101623535 49.86423873901367 8.772647857666016 47.90424346923828 9.429644584655762 45.97141265869141 C 10.08481121063232 44.04397201538086 10.84733295440674 42.14341735839844 11.71566963195801 40.27291870117188 C 12.58165550231934 38.40746688842773 13.55295562744141 36.57175445556641 14.62806987762451 34.76887130737305 C 15.14376735687256 33.90409088134766 15.68331813812256 33.04806900024414 16.24562835693359 32.20221710205078 C 16.8072395324707 31.35740661621094 17.39157104492188 30.52272033691406 17.99752807617188 29.69955635070801 C 18.60275840759277 28.87738418579102 19.22957801818848 28.06668090820312 19.87691688537598 27.26884841918945 C 20.52349853515625 26.4719409942627 21.19057464599609 25.68784523010254 21.87706565856934 24.91793823242188 C 22.5561580657959 24.15633773803711 23.2557544708252 23.40693092346191 23.97451591491699 22.67091369628906 C 24.69250869750977 21.93569374084473 25.42964744567871 21.21381187438965 26.18461036682129 20.50645446777344 C 26.93878936767578 19.79983711242676 27.71078491210938 19.10768699645996 28.4992847442627 18.43120193481445 C 29.2869930267334 17.75538635253906 30.0912036895752 17.09517097473145 30.91061973571777 16.45174407958984 C 31.72924041748047 15.80891799926758 32.56476974487305 15.18148136138916 33.41565322875977 14.57041072845459 C 34.26577758789062 13.95988655090332 35.13127136230469 13.36566543579102 36.0106201171875 12.7887077331543 C 36.88920593261719 12.21224212646484 37.78166961669922 11.65298652648926 38.68648147583008 11.11189842224121 C 39.5905647277832 10.57124519348145 40.50703430175781 10.0487060546875 41.43437194824219 9.54524040222168 C 42.37006759643555 9.03724193572998 43.31895065307617 8.547517776489258 44.27933120727539 8.076788902282715 C 45.23904418945312 7.606392383575439 46.21028900146484 7.154935836791992 47.19137573242188 6.723135948181152 C 48.17183685302734 6.291615009307861 49.16218566894531 5.879703998565674 50.16074371337891 5.488120079040527 C 51.15872955322266 5.096762657165527 52.16497039794922 4.725685596466064 53.17781066894531 4.375607490539551 C 55.28356552124023 3.64777135848999 57.41218566894531 3.010283946990967 59.56023025512695 2.463524341583252 C 61.70652770996094 1.917210102081299 63.872802734375 1.461329340934753 66.05565643310547 1.096336960792542 C 68.23731994628906 0.7315449714660645 70.43613433837891 0.4574436247348785 72.64871978759766 0.2745595872402191 C 74.86069488525391 0.09172733873128891 77.08705902099609 1.105939190892968e-05 79.32442474365234 1.105939190892968e-05 C 81.56179046630859 1.105939190892968e-05 83.77747344970703 0.09172733873128891 85.96820831298828 0.2745595872402191 C 88.15953826904297 0.4574436247348785 90.32649230957031 0.7315449714660645 92.46576690673828 1.096336960792542 C 94.60618591308594 1.461329340934753 96.71947479248047 1.917210102081299 98.80226898193359 2.463524341583252 C 100.8867645263672 3.010283946990967 102.9412689208984 3.64777135848999 104.9624328613281 4.375607490539551 C 105.9345855712891 4.725685596466064 106.897705078125 5.096762657165527 107.8501892089844 5.488120079040527 C 108.8032455444336 5.879703998565674 109.7457122802734 6.291615009307861 110.676025390625 6.723135948181152 C 111.6069259643555 7.154935836791992 112.5256881713867 7.606392383575439 113.4307327270508 8.076788902282715 C 114.3363952636719 8.547517776489258 115.2283554077148 9.03724193572998 116.1050109863281 9.54524040222168 C 116.9738311767578 10.0487060546875 117.8295440673828 10.57124519348145 118.6708145141602 11.11189842224121 C 119.5127258300781 11.65298652648926 120.3401794433594 12.21224212646484 121.1517715454102 12.7887077331543 C 121.9640426635742 13.36566543579102 122.7604751586914 13.95988655090332 123.5396270751953 14.57041072845459 C 124.3195114135742 15.18148136138916 125.0820922851562 15.80891799926758 125.8260040283203 16.45174407958984 C 126.5706100463867 17.09517097473145 127.2980804443359 17.75538635253906 128.0072479248047 18.43120193481445 C 128.7171173095703 19.10768699645996 129.40869140625 19.79983711242676 130.0807189941406 20.50645446777344 C 130.7534637451172 21.21381187438965 131.4067077636719 21.93569374084473 132.0392150878906 22.67091369628906 C 132.6724395751953 23.40693092346191 133.2849273681641 24.15633773803711 133.8755035400391 24.91793823242188 C 134.4725189208984 25.68784523010254 135.0484313964844 26.4719409942627 135.6023864746094 27.26884841918945 C 136.156982421875 28.06668090820312 136.6895904541016 28.87738418579102 137.1992492675781 29.69955635070801 C 137.7095336914062 30.52272033691406 138.1968536376953 31.35740661621094 138.6602630615234 32.20221710205078 C 139.124267578125 33.04806900024414 139.5643157958984 33.90409088134766 139.9795074462891 34.76887130737305 C 140.8450775146484 36.57175445556641 141.6029968261719 38.40746688842773 142.2521667480469 40.27291870117188 C 142.9030914306641 42.14341735839844 143.4447174072266 44.04397201538086 143.8758392333984 45.97141265869141 C 144.3081817626953 47.90424346923828 144.6294708251953 49.86423873901367 144.8384246826172 51.84822463989258 C 145.0480194091797 53.837890625 145.1446685791016 55.8517951965332 145.1271514892578 57.88670349121094 C 145.109619140625 59.92755889892578 144.9774780273438 61.9591178894043 144.7311096191406 63.97783660888672 C 144.4840240478516 66.00238037109375 144.1220703125 68.01390075683594 143.6455535888672 70.00877380371094 C 143.1676940917969 72.00932312011719 142.5746612548828 73.99301147460938 141.8668975830078 75.95614624023438 C 141.1571350097656 77.92475891113281 140.3319854736328 79.87257385253906 139.3919067382812 81.79585266113281 C 138.9391937255859 82.72203826904297 138.4597625732422 83.64118194580078 137.9545745849609 84.55171203613281 C 137.44873046875 85.46340179443359 136.9170379638672 86.36642456054688 136.3604736328125 87.25918579101562 C 135.8031921386719 88.15305328369141 135.2209777832031 89.03659820556641 134.61474609375 89.90823364257812 C 134.0077819824219 90.78092193603516 133.3767852783203 91.64161682128906 132.7227172851562 92.48871612548828 C 132.0741882324219 93.32860565185547 131.4016265869141 94.15692901611328 130.7061920166016 94.97228240966797 C 130.010009765625 95.78853607177734 129.2909851074219 96.59178161621094 128.5503997802734 97.38053894042969 C 127.8089904785156 98.17015838623047 127.046012878418 98.94526672363281 126.2627334594727 99.70439910888672 C 125.478645324707 100.4643478393555 124.6742630004883 101.2082595825195 123.8509063720703 101.9346771240234 C 123.0267028808594 102.6618423461914 122.1817932128906 103.3729705810547 121.3177490234375 104.0668792724609 C 120.4528884887695 104.7614517211914 119.5688934326172 105.4387283325195 118.6673736572266 106.0974960327148 C 117.7650299072266 106.7568588256836 116.8451385498047 107.3976593017578 115.9093399047852 108.018684387207 C 114.9727172851562 108.640251159668 114.0201950073242 109.2419662475586 113.0533905029297 109.8226470947266 C 112.0763320922852 110.4094467163086 111.0825881958008 110.9760208129883 110.0739440917969 111.5214233398438 C 109.0645446777344 112.0672378540039 108.0403060913086 112.5918273925781 107.0030670166016 113.09423828125 C 105.9651107788086 113.5970001220703 104.9141998291016 114.0775604248047 103.8521957397461 114.5349502563477 C 102.7895278930664 114.9926452636719 101.7158203125 115.427116394043 100.6329193115234 115.8374786376953 C 98.37775421142578 116.6920700073242 96.08984375 117.4421691894531 93.77378845214844 118.0867004394531 C 91.4556884765625 118.7317886352539 89.11003112792969 119.2709350585938 86.74146270751953 119.7031402587891 C 84.37149810791016 120.1356048583984 81.97929382324219 120.4608764648438 79.56951904296875 120.6780700683594 C 77.15903472900391 120.8953170776367 74.73166656494141 121.0043334960938 72.29212188720703 121.0043334960938 Z M 79.08869171142578 4.056159973144531 C 70.58951568603516 4.056159973144531 62.38410949707031 5.508839130401611 54.80233001708984 8.142240524291992 C 47.1907958984375 10.78597640991211 40.18096542358398 14.62904930114746 34.12235641479492 19.4057788848877 C 28.02083969116211 24.21633911132812 22.86731338500977 29.9870662689209 19.03403854370117 36.4486198425293 C 15.16441059112549 42.97146224975586 12.63260269165039 50.21113586425781 11.83418655395508 57.88670349121094 C 11.02689838409424 65.64754486083984 12.06638526916504 73.12738800048828 14.66079330444336 80.00360870361328 C 17.28059005737305 86.94712829589844 21.48105430603027 93.26236724853516 26.94948768615723 98.61125946044922 C 32.45891571044922 104.0002365112305 39.23998641967773 108.3932723999023 46.95467758178711 111.445556640625 C 54.70198059082031 114.5107574462891 63.36171722412109 116.2123336791992 72.57061004638672 116.2123336791992 C 81.77950286865234 116.2123336791992 90.63702392578125 114.5107574462891 98.74059295654297 111.445556640625 C 106.8100662231445 108.3932723999023 114.1017379760742 104.0002365112305 120.2375564575195 98.61125946044922 C 126.3276901245117 93.26236724853516 131.2621917724609 86.94712829589844 134.6890563964844 80.00360870361328 C 138.0827026367188 73.12738800048828 139.9915924072266 65.64754486083984 140.0863494873047 57.88670349121094 C 140.1800842285156 50.21113586425781 138.4897613525391 42.97146224975586 135.3782958984375 36.4486198425293 C 132.2960815429688 29.9870662689209 127.8132781982422 24.21633911132812 122.2709197998047 19.4057788848877 C 116.7675170898438 14.62904930114746 110.2043609619141 10.78597640991211 102.9001159667969 8.142240524291992 C 95.62442016601562 5.508839130401611 87.58786773681641 4.056159973144531 79.08869171142578 4.056159973144531 Z" stroke="none" fill="#ff9500"/>
          </g>
          <path id="Tracé_69" data-name="Tracé 69" d="M1.83,0a2.039,2.039,0,0,0-.69.119A1.859,1.859,0,0,0,.571.444,1.575,1.575,0,0,0,.183.925a1.348,1.348,0,0,0-.151.59,1.313,1.313,0,0,0,.127.591,1.488,1.488,0,0,0,.37.483,1.768,1.768,0,0,0,.556.326,2,2,0,0,0,.687.12,2.039,2.039,0,0,0,.692-.12,1.858,1.858,0,0,0,.569-.326,1.573,1.573,0,0,0,.388-.483,1.346,1.346,0,0,0,.15-.591,1.313,1.313,0,0,0-.128-.59,1.489,1.489,0,0,0-.37-.482A1.768,1.768,0,0,0,2.516.119,2,2,0,0,0,1.83,0Z" transform="translate(128.678 31.654)" fill="#fff"/>
        </g>
        <path id="Tracé_90" data-name="Tracé 90" d="M0,94.241,8.727,0H113l-1.457,94.241Z" transform="translate(23.239 31.425)" fill="none"/>
        <g id="Groupe_20" data-name="Groupe 20" transform="translate(5.756)">
          <g id="Groupe_19" data-name="Groupe 19">
            <path id="Tracé_91" data-name="Tracé 91" d="M135.194,53.991l0,.425a52.159,52.159,0,0,1-5.224,22.061,60.894,60.894,0,0,1-14.084,18.672A70.137,70.137,0,0,1,94.81,108.234,74.235,74.235,0,0,1,68.972,113.5a70.376,70.376,0,0,1-25.592-4.068A61.322,61.322,0,0,1,22.986,97.294,52.713,52.713,0,0,1,9.911,79.214a49.09,49.09,0,0,1-3.981-21.9,52.639,52.639,0,0,1,5.86-21.655,61.377,61.377,0,0,1,13.855-17.7A70.127,70.127,0,0,1,45.372,5.651,74.245,74.245,0,0,1,69.148.15,71.507,71.507,0,0,1,93.093,2.619a63.638,63.638,0,0,1,20.215,9.728A54.845,54.845,0,0,1,127.962,28.13a49.438,49.438,0,0,1,6.97,20.694q.063.632.11,1.273t.08,1.289q.033.648.05,1.3t.02,1.307Z" transform="translate(0 21.439)" fill="#fff7cc"/>
            <path id="Tracé_94" data-name="Tracé 94" d="M133.407,56.157a55.73,55.73,0,0,1-8.113,17.521,63.862,63.862,0,0,1-13.8,14.39A71.148,71.148,0,0,1,93.23,98.134a74.343,74.343,0,0,1-21.325,4.559A71.883,71.883,0,0,1,50.4,100.865a65.024,65.024,0,0,1-18.753-7.738A56.9,56.9,0,0,1,17.133,80.466a50.786,50.786,0,0,1-8.95-16.544A49.149,49.149,0,0,1,5.977,45.68a52.417,52.417,0,0,1,4.354-17.552A59.034,59.034,0,0,1,20.442,12.52,66.736,66.736,0,0,1,35.609,0q-.495,1.412-.9,2.842T34,5.721q-.312,1.449-.53,2.909t-.341,2.933a46.218,46.218,0,0,0,1.162,15.075A47.819,47.819,0,0,0,40.226,40.6,52.887,52.887,0,0,0,50.582,52.58a60.249,60.249,0,0,0,14.337,9.113,67.843,67.843,0,0,0,17,5.159,72.9,72.9,0,0,0,17.883.737,73.488,73.488,0,0,0,17.56-3.615,69.4,69.4,0,0,0,16.045-7.817Z" transform="translate(0.094 32.027)" fill="#fff1a8"/>
            <path id="Tracé_95" data-name="Tracé 95" d="M.858,33.575A4.15,4.15,0,0,1,.29,31.789a4.3,4.3,0,0,1,.252-1.808,4.908,4.908,0,0,1,1-1.627A5.686,5.686,0,0,1,3.2,27.109L58.372,0q.712.946,1.373,1.92T61.016,3.9q.61,1,1.167,2.034t1.06,2.087L8.115,35.307a6.168,6.168,0,0,1-2.06.6A6.059,6.059,0,0,1,4,35.776a5.4,5.4,0,0,1-1.81-.8A4.586,4.586,0,0,1,.858,33.575Z" transform="translate(66.968 45.709)" fill="#fff1a8"/>
            <path id="Ellipse_10" data-name="Ellipse 10" d="M54.782,0A52.54,52.54,0,0,1,72.908,3.15,46.021,46.021,0,0,1,87.57,11.816a39.7,39.7,0,0,1,9.807,13.059,36.751,36.751,0,0,1,3.377,16.336,39.211,39.211,0,0,1-4.233,16.727A45.964,45.964,0,0,1,85.57,71.9a52.874,52.874,0,0,1-16.131,9.569A55.629,55.629,0,0,1,49.87,85.008a52.334,52.334,0,0,1-19.159-3.541A45.375,45.375,0,0,1,15.685,71.9a39.078,39.078,0,0,1-9.338-13.96,36.776,36.776,0,0,1-2.3-16.727A39.982,39.982,0,0,1,9.312,24.876,46.926,46.926,0,0,1,20.628,11.816,53.359,53.359,0,0,1,36.292,3.15,55.661,55.661,0,0,1,54.782,0Z" transform="translate(18.316 34.643)" fill="#ff619a"/>
            <path id="Tracé_98" data-name="Tracé 98" d="M75.608,47.995q2.263,0,4.523-.133t4.5-.416q2.244-.278,4.467-.7t4.41-.973a47.242,47.242,0,0,1-8.5,9.381A52.176,52.176,0,0,1,74.17,62.207a55.31,55.31,0,0,1-12.513,4.329,55.6,55.6,0,0,1-13.47,1.242,52.966,52.966,0,0,1-13.146-2.051A48.35,48.35,0,0,1,23.449,60.67a43.21,43.21,0,0,1-9.406-7.652A38.99,38.99,0,0,1,7.41,43.2,36.891,36.891,0,0,1,4.179,32.115a37.4,37.4,0,0,1,.3-11.3,40.2,40.2,0,0,1,3.642-10.9A44.647,44.647,0,0,1,14.926,0,46.9,46.9,0,0,0,20.811,18.75,52.883,52.883,0,0,0,33.9,34.008,62.3,62.3,0,0,0,52.733,44.257a70.731,70.731,0,0,0,22.875,3.737Z" transform="translate(18.314 51.858)" fill="#fc025c"/>
            <path id="Tracé_99" data-name="Tracé 99" d="M.858,26.766A4.15,4.15,0,0,1,.29,24.98a4.3,4.3,0,0,1,.252-1.808,4.908,4.908,0,0,1,1-1.627A5.686,5.686,0,0,1,3.2,20.3L44.507,0q.722.947,1.379,1.931t1.246,2q.59,1.02,1.11,2.073t.97,2.137L8.115,28.5a6.168,6.168,0,0,1-2.06.6A6.059,6.059,0,0,1,4,28.968a5.4,5.4,0,0,1-1.81-.8A4.586,4.586,0,0,1,.858,26.766Z" transform="translate(66.968 52.518)" fill="#ff6464"/>
            <path id="Ellipse_11" data-name="Ellipse 11" d="M36.176,0A35,35,0,0,1,48.369,2.141a30.6,30.6,0,0,1,9.815,5.872,26.384,26.384,0,0,1,6.489,8.8,24.48,24.48,0,0,1,2.134,10.933,26.2,26.2,0,0,1-2.939,11.107,30.735,30.735,0,0,1-7.345,9.2,35.3,35.3,0,0,1-10.7,6.272A37.088,37.088,0,0,1,32.9,56.643,34.912,34.912,0,0,1,20.25,54.329a30.317,30.317,0,0,1-9.977-6.272,26.106,26.106,0,0,1-6.281-9.2A24.491,24.491,0,0,1,2.337,27.747a26.546,26.546,0,0,1,3.4-10.933,31.164,31.164,0,0,1,7.507-8.8A35.514,35.514,0,0,1,23.734,2.141,37.1,37.1,0,0,1,36.176,0Z" transform="translate(36.145 48.107)" fill="#fff7cc"/>
            <path id="Tracé_100" data-name="Tracé 100" d="M34.924,8.321,8.135,21.6a6.156,6.156,0,0,1-2.066.6,6.048,6.048,0,0,1-2.058-.128,5.384,5.384,0,0,1-1.813-.8A4.571,4.571,0,0,1,.865,19.854a4.119,4.119,0,0,1-.574-1.785A4.264,4.264,0,0,1,.545,16.26a4.878,4.878,0,0,1,1-1.625A5.655,5.655,0,0,1,3.22,13.4L30.5,0q.757.937,1.416,1.931t1.215,2.038q.556,1.044,1.007,2.134t.792,2.219Z" transform="translate(66.949 59.418)" fill="#fff1a8"/>
            <path id="Ellipse_12" data-name="Ellipse 12" d="M17.919,0a17.49,17.49,0,0,1,6.153,1.091A15.265,15.265,0,0,1,29,4.075a13.153,13.153,0,0,1,3.22,4.45,12.234,12.234,0,0,1,1.008,5.488A13.138,13.138,0,0,1,31.7,19.544a15.417,15.417,0,0,1-3.694,4.55,17.674,17.674,0,0,1-5.325,3.084,18.546,18.546,0,0,1-6.4,1.134,17.468,17.468,0,0,1-6.267-1.134,15.193,15.193,0,0,1-4.968-3.084,13.083,13.083,0,0,1-3.168-4.55,12.237,12.237,0,0,1-.888-5.532A13.224,13.224,0,0,1,2.633,8.525a15.524,15.524,0,0,1,3.734-4.45A17.728,17.728,0,0,1,11.64,1.091,18.549,18.549,0,0,1,17.919,0Z" transform="translate(53.608 61.842)" fill="#ff8b7b"/>
            <path id="Tracé_101" data-name="Tracé 101" d="M3.244,6.372a5.8,5.8,0,0,0-1.173.751,5.291,5.291,0,0,0-.911.968A4.753,4.753,0,0,0,.551,9.22a4.319,4.319,0,0,0-.265,1.237A4.1,4.1,0,0,0,.4,11.7a4.161,4.161,0,0,0,.468,1.138,4.463,4.463,0,0,0,.794.979,4.947,4.947,0,0,0,1.086.764,5.5,5.5,0,0,0,1.292.477,5.969,5.969,0,0,0,1.383.155,6.2,6.2,0,0,0,1.4-.166,6.121,6.121,0,0,0,1.341-.487L19.9,8.746a12.191,12.191,0,0,0-.964-4.7A12.6,12.6,0,0,0,17.78,1.917,13.28,13.28,0,0,0,16.209,0Z" transform="translate(66.93 66.454)" fill="#ff6464"/>
            <path id="Tracé_102" data-name="Tracé 102" d="M2.729,78h0A4.787,4.787,0,0,1,1.2,76.76a4.2,4.2,0,0,1-.807-1.626,4.12,4.12,0,0,1-.036-1.8,4.573,4.573,0,0,1,.783-1.767L51.051,2.114A4.749,4.749,0,0,1,52.417.854a5.71,5.71,0,0,1,1.767-.71A6.119,6.119,0,0,1,56.13.032a5.71,5.71,0,0,1,1.9.534h0a4.768,4.768,0,0,1,1.493,1.11,3.908,3.908,0,0,1,.83,1.459,3.553,3.553,0,0,1,.108,1.623,3.856,3.856,0,0,1-.674,1.6L10.17,76.272a5.374,5.374,0,0,1-1.487,1.407,6.064,6.064,0,0,1-1.9.8,6.166,6.166,0,0,1-2.066.126A5.613,5.613,0,0,1,2.729,78Z" transform="translate(67.864 0)" fill="#f9d423"/>
            <path id="Tracé_103" data-name="Tracé 103" d="M.131,26.341,18.825,0l34.1,30.508Z" transform="translate(108.828 6.361)" fill="#ff619a"/>
            <path id="Tracé_106" data-name="Tracé 106" d="M60.387,3.663a3.625,3.625,0,0,1-.057.556,3.741,3.741,0,0,1-.141.544,3.927,3.927,0,0,1-.224.526,4.176,4.176,0,0,1-.3.5L10.041,75.709a5.45,5.45,0,0,1-1.5,1.323,6.091,6.091,0,0,1-1.869.733,6.155,6.155,0,0,1-2.013.094,5.6,5.6,0,0,1-1.932-.593,4.8,4.8,0,0,1-1.495-1.2,4.216,4.216,0,0,1-.815-1.572,4.1,4.1,0,0,1-.086-1.75A4.51,4.51,0,0,1,1.022,71l2.127-2.971a5.605,5.605,0,0,0,1.976.59A6.164,6.164,0,0,0,7.175,68.5a6.044,6.044,0,0,0,1.883-.783,5.322,5.322,0,0,0,1.477-1.386L57.909,0a4.958,4.958,0,0,1,1.047.677,4.307,4.307,0,0,1,.784.869,3.8,3.8,0,0,1,.488,1.012,3.552,3.552,0,0,1,.158,1.106Z" transform="translate(67.987 0.571)" fill="#f9b53d"/>
            <path id="Tracé_107" data-name="Tracé 107" d="M52.931,30.508.131,26.33,18.825,0,21.77,2.647A13.551,13.551,0,0,0,20.4,6.071a12.783,12.783,0,0,0,.277,7.091,13.83,13.83,0,0,0,1.647,3.359,15.507,15.507,0,0,0,2.562,2.935,17.563,17.563,0,0,0,3.283,2.309,19.519,19.519,0,0,0,3.848,1.591,20.911,20.911,0,0,0,4.254.783l10.451.818Z" transform="translate(108.823 6.361)" fill="#fc025c"/>
            <path id="Tracé_112" data-name="Tracé 112" d="M51.723,28.619a35.485,35.485,0,0,1-4.367,2.223,36.476,36.476,0,0,1-4.651,1.616,36.867,36.867,0,0,1-4.847.982,36.619,36.619,0,0,1-4.955.322A34.913,34.913,0,0,1,20.25,31.448a30.317,30.317,0,0,1-9.977-6.272,26.106,26.106,0,0,1-6.281-9.2A24.491,24.491,0,0,1,2.337,4.866q.048-.614.127-1.226T2.653,2.42q.11-.609.25-1.214T3.212,0a51.752,51.752,0,0,0,8.433,10.924,57.9,57.9,0,0,0,11.273,8.682,64.628,64.628,0,0,0,13.56,6.03,70.36,70.36,0,0,0,15.245,2.983Z" transform="translate(36.145 70.989)" fill="#fff1a8"/>
          </g>
        </g>
      </g>
    </g>
    <g id="PILE" transform="translate(1787.195 808.588)">
      <g id="Tracé_256" data-name="Tracé 256" transform="translate(0 0)" fill="#fff" stroke-linecap="round">
        <path d="M5.425,118.237,21.007,3.582H76.715q1.623,0,3.261.075t3.291.226q1.653.151,3.322.378t3.354.529a32.642,32.642,0,0,1,3.289.765,30.728,30.728,0,0,1,3.128,1.087,29.973,29.973,0,0,1,2.969,1.411,30.35,30.35,0,0,1,2.812,1.736,19.655,19.655,0,0,1,2.581,2.145A21.875,21.875,0,0,1,107,14.576a26.14,26.14,0,0,1,1.969,3.14,32.8,32.8,0,0,1,1.664,3.646A29.977,29.977,0,0,1,111.9,25.6a42.378,42.378,0,0,1,.79,4.922q.274,2.638.3,5.62t-.187,6.334q-.22,3.392-.641,6.469t-1.047,5.85a51.587,51.587,0,0,1-1.456,5.215,38.591,38.591,0,0,1-1.867,4.564,45.228,45.228,0,0,1-2.2,3.984,36.547,36.547,0,0,1-2.441,3.476A30.25,30.25,0,0,1,100.474,75a26.061,26.061,0,0,1-2.927,2.439q-1.525,1.089-3.1,2a35.906,35.906,0,0,1-3.206,1.649,34.262,34.262,0,0,1-3.309,1.294,33.7,33.7,0,0,1-3.41.937q-1.73.379-3.436.664t-3.388.474q-1.682.19-3.34.285t-3.289.095q-.861,0-1.738-.02t-1.768-.06q-.891-.04-1.8-.1t-1.828-.14q-.921-.08-1.829-.175t-1.8-.2q-.9-.11-1.777-.235t-1.751-.265q-.869-.14-1.7-.279t-1.635-.279q-.8-.14-1.566-.279t-1.5-.279q-.732-.14-1.4-.264t-1.281-.234q-.61-.11-1.159-.2t-1.038-.174l-4.062,36.595ZM48.17,57.54H68.084a13,13,0,0,0,1.694-.106,10.054,10.054,0,0,0,1.525-.317,8.2,8.2,0,0,0,1.355-.528,7.272,7.272,0,0,0,1.185-.739,8.123,8.123,0,0,0,1.03-.944,9.1,9.1,0,0,0,.892-1.144,10.9,10.9,0,0,0,.754-1.342,13.662,13.662,0,0,0,.615-1.54q.273-.819.5-1.736t.422-1.93q.19-1.013.34-2.123t.258-2.314q.1-1.166.141-2.236t0-2.042q-.033-.972-.134-1.849T78.4,34.993a12.468,12.468,0,0,0-.408-1.464,9.341,9.341,0,0,0-.545-1.266,7.3,7.3,0,0,0-.682-1.069,6.156,6.156,0,0,0-.818-.874,5.319,5.319,0,0,0-.982-.679,6.4,6.4,0,0,0-1.174-.484,8.5,8.5,0,0,0-1.366-.29,11.876,11.876,0,0,0-1.558-.1h-19.5Zm82.727,60.7L136.523,3.582h33.151L166.9,118.237Zm100.229,0q-3.109,0-5.943-.209t-5.39-.628a46.531,46.531,0,0,1-4.833-1.046,35.546,35.546,0,0,1-4.272-1.461,26.217,26.217,0,0,1-3.722-1.906,22.584,22.584,0,0,1-3.182-2.378,21.2,21.2,0,0,1-2.641-2.845,21.929,21.929,0,0,1-2.1-3.307,27.284,27.284,0,0,1-1.6-3.772,33.807,33.807,0,0,1-1.13-4.24,43.181,43.181,0,0,1-.665-4.7q-.217-2.46-.2-5.15l.373-83.014h33.151l1.588,77.742q.014.677.089,1.3a10.9,10.9,0,0,0,.212,1.207,9.183,9.183,0,0,0,.335,1.109,8.055,8.055,0,0,0,.458,1.011,6.007,6.007,0,0,0,.592.9,5.83,5.83,0,0,0,.738.767,6.237,6.237,0,0,0,.883.638,7.268,7.268,0,0,0,1.029.507,10.63,10.63,0,0,0,1.157.387,12.806,12.806,0,0,0,1.269.277q.662.111,1.38.166t1.491.055h39.3l1.568,28.588Zm108.306,1.006q-1.114,0-2.344-.052t-2.574-.157q-1.344-.1-2.8-.262t-3.032-.367q-1.573-.21-3.133-.545t-3.1-.8q-1.545-.46-3.076-1.045t-3.045-1.294a25.277,25.277,0,0,1-2.919-1.609,25.83,25.83,0,0,1-2.7-1.989,27.671,27.671,0,0,1-2.478-2.366,30.916,30.916,0,0,1-2.256-2.74,21.024,21.024,0,0,1-1.919-3.191,26.168,26.168,0,0,1-1.468-3.718,34.161,34.161,0,0,1-1.018-4.236,45.516,45.516,0,0,1-.572-4.745L296.8,30.246a37.715,37.715,0,0,1-.082-3.814,28.833,28.833,0,0,1,.31-3.464,22.554,22.554,0,0,1,.7-3.119,18.455,18.455,0,0,1,1.086-2.778,23.363,23.363,0,0,1,1.394-2.464,20.744,20.744,0,0,1,1.625-2.176,19.34,19.34,0,0,1,1.856-1.891,19.075,19.075,0,0,1,2.086-1.609q1.1-.734,2.272-1.359t2.414-1.142q1.242-.517,2.556-.927t2.7-.712q1.385-.3,2.754-.529t2.723-.378q1.354-.151,2.693-.226t2.663-.075q3.588,0,6.928.022t6.431.067q3.091.044,5.934.111t5.438.155q2.6.089,5.021.182t4.681.191q2.256.1,4.342.2t4,.209q1.916.107,3.722.222t3.5.24q1.7.125,3.28.258t3.059.276l3.233,23.791H339.426a19.174,19.174,0,0,0-2.037.1,12.79,12.79,0,0,0-1.756.3,8.587,8.587,0,0,0-1.475.508,6.087,6.087,0,0,0-1.2.712,4.64,4.64,0,0,0-.9.916,4.478,4.478,0,0,0-.6,1.122,5.454,5.454,0,0,0-.3,1.328,7.784,7.784,0,0,0,0,1.536l.883,9.306,47.606,1.513,3.073,23.728-48.133,1.569.84,8.853q.068.716.192,1.368a11.7,11.7,0,0,0,.3,1.241,9.4,9.4,0,0,0,.418,1.114,7.813,7.813,0,0,0,.531.985,7.928,7.928,0,0,0,.633.861,7.226,7.226,0,0,0,.724.742,6.99,6.99,0,0,0,.815.622,7.206,7.206,0,0,0,.907.5,9.393,9.393,0,0,0,1.974.663,9.668,9.668,0,0,0,1.04.166,10.31,10.31,0,0,0,1.074.055h50.2l3.656,26.9q-1.959.251-4.06.481t-4.346.439q-2.245.209-4.633.4t-4.919.356q-2.531.168-5.089.314t-5.142.272q-2.585.126-5.2.231t-5.248.189q-2.637.084-5.2.147t-5.038.1q-2.48.042-4.881.063T339.431,119.243Z" stroke="none"/>
        <path d="M 339.83642578125 123.4987335205078 C 339.0367736816406 123.4987335205078 338.1954650878906 123.4799880981445 337.3141479492188 123.4426574707031 C 336.4328308105469 123.4053192138672 335.5116271972656 123.3493957519531 334.5520935058594 123.2749938964844 C 333.5927429199219 123.2005996704102 332.5951538085938 123.1077423095703 331.5611572265625 122.99658203125 C 330.5273132324219 122.8854293823242 329.4570007324219 122.7559585571289 328.3520812988281 122.6083145141602 C 327.1685791015625 122.4502029418945 325.9868469238281 122.2438888549805 324.8089599609375 121.9900283813477 C 323.6314697265625 121.7362670898438 322.4580383300781 121.4350128173828 321.290771484375 121.0869750976562 C 320.1240539550781 120.7390899658203 318.9637145996094 120.344482421875 317.8117980957031 119.9038467407227 C 316.6606140136719 119.4634780883789 315.51806640625 118.9772033691406 314.3861999511719 118.4457092285156 C 313.1822509765625 117.8803863525391 312.0205688476562 117.2388687133789 310.9028625488281 116.5228652954102 C 309.7862854003906 115.8075790405273 308.7138366699219 115.0180816650391 307.6875 114.1561584472656 C 306.6623840332031 113.2952651977539 305.6834716796875 112.3622741699219 304.7525939941406 111.3589706420898 C 303.8229675292969 110.3570785522461 302.94140625 109.2852478027344 302.1097106933594 108.1453170776367 C 301.2811584472656 107.0096282958984 300.539306640625 105.7766036987305 299.8850402832031 104.4494171142578 C 299.2318725585938 103.1246719360352 298.6661071777344 101.7064590454102 298.1883850097656 100.1979598999023 C 297.7116394042969 98.69264221191406 297.3227233886719 97.09781646728516 297.0221557617188 95.41669464111328 C 296.7223205566406 93.73955535888672 296.5105590820312 91.9769287109375 296.3873901367188 90.13208770751953 L 292.3892211914062 30.24640464782715 C 292.2916870117188 28.7848072052002 292.2687683105469 27.37862777709961 292.3201293945312 26.02966499328613 C 292.3712768554688 24.68339347839355 292.4963684082031 23.39389801025391 292.6947326660156 22.16302299499512 C 292.8927917480469 20.93439674377441 293.1638793945312 19.76395797729492 293.507568359375 18.65356636047363 C 293.8506774902344 17.54499626159668 294.2662353515625 16.49607467651367 294.7536926269531 15.50864791870117 C 295.2460327148438 14.51140975952148 295.7875366210938 13.5647668838501 296.376953125 12.66990280151367 C 296.9655456542969 11.7762336730957 297.6020202636719 10.93406105041504 298.2852783203125 10.14456748962402 C 298.9676208496094 9.356009483337402 299.6967163085938 8.619884490966797 300.4712524414062 7.937398433685303 C 301.2449951171875 7.255617618560791 302.0643310546875 6.627252578735352 302.9279479980469 6.05352258682251 C 303.7671813964844 5.496040821075439 304.6365966796875 4.978389263153076 305.5345764160156 4.501183032989502 C 306.4319152832031 4.024318218231201 307.3577880859375 3.587774515151978 308.3106994628906 3.192171096801758 C 309.2630310058594 2.796817302703857 310.2424926757812 2.442284345626831 311.2474060058594 2.129225015640259 C 312.2518310546875 1.816312909126282 313.2818908691406 1.54478919506073 314.3359680175781 1.315298557281494 C 315.3388977050781 1.096927762031555 316.3406677246094 0.9055237174034119 317.3395690917969 0.7412604689598083 C 318.3381652832031 0.5770378112792969 319.3339233398438 0.4399218559265137 320.3251953125 0.3301003873348236 C 321.3163757324219 0.2202971130609512 322.3031311035156 0.1377702802419662 323.2838134765625 0.08269964158535004 C 324.2644653320312 0.02761166542768478 325.2390747070312 -1.460904331906931e-05 326.2060852050781 -1.460904331906931e-05 C 328.6091613769531 -1.460904331906931e-05 330.9289855957031 0.007421435788273811 333.16552734375 0.02229377441108227 C 335.4021301269531 0.03717375174164772 337.5554504394531 0.05946146696805954 339.6255798339844 0.08917959779500961 C 341.6958312988281 0.1188990548253059 343.6829223632812 0.1560210138559341 345.5868530273438 0.2005613446235657 C 347.4909057617188 0.245097354054451 349.3118896484375 0.297039121389389 351.0497741699219 0.3563883602619171 C 352.7861633300781 0.4156625270843506 354.4656372070312 0.4764404594898224 356.0882873535156 0.5387153029441833 C 357.7110900878906 0.6009886860847473 359.2770385742188 0.6647668480873108 360.7861328125 0.7300282716751099 C 362.2952880859375 0.7952960729598999 363.7476806640625 0.8620478510856628 365.1431884765625 0.9302911162376404 C 366.5387878417969 0.9985341429710388 367.8775634765625 1.068269371986389 369.1593933105469 1.139489889144897 C 370.4537658691406 1.211398601531982 371.7107849121094 1.286352515220642 372.930419921875 1.364323139190674 C 374.150146484375 1.442302823066711 375.33251953125 1.523300886154175 376.4774780273438 1.607325434684753 C 377.6225891113281 1.691338896751404 378.7303466796875 1.778380155563354 379.8007202148438 1.868414282798767 C 380.8712158203125 1.958438754081726 381.9043884277344 2.051472187042236 382.9000549316406 2.147493839263916 L 386.7630310058594 2.519943475723267 L 387.2078552246094 5.716354846954346 L 390.5186157226562 29.50769233703613 L 391.0395202636719 33.25096893310547 L 386.6231689453125 33.25096893310547 L 339.8057556152344 33.25096893310547 C 339.3624877929688 33.25096893310547 338.9476623535156 33.26750946044922 338.5650634765625 33.29982376098633 C 338.1824951171875 33.3321533203125 337.8321228027344 33.38025665283203 337.5177612304688 33.44337463378906 C 337.2033996582031 33.50651168823242 336.9249877929688 33.58467102050781 336.6863708496094 33.67709732055664 C 336.44775390625 33.76953125 336.2489013671875 33.87623596191406 336.0937194824219 33.99648284912109 C 335.9846496582031 34.08095932006836 335.8921508789062 34.18715667724609 335.8163757324219 34.31479263305664 C 335.7405700683594 34.44244766235352 335.681396484375 34.59154891967773 335.6389770507812 34.76181793212891 C 335.5965576171875 34.9321403503418 335.5709533691406 35.12364959716797 335.5621337890625 35.33605575561523 C 335.5532836914062 35.54853057861328 335.5613098144531 35.78193283081055 335.5862731933594 36.03600311279297 L 336.1394958496094 41.67097091674805 L 379.3213195800781 43.03952026367188 L 383.622314453125 43.17581176757812 L 384.1106872558594 46.85532379150391 L 387.26025390625 70.58335876464844 L 387.7684020996094 74.41178131103516 L 383.4059448242188 74.55440521240234 L 339.5088806152344 75.98954772949219 L 340.0013427734375 81.00535583496094 C 340.0409240722656 81.40866088867188 340.0946960449219 81.7667236328125 340.1576843261719 82.08415222167969 C 340.2206726074219 82.4017333984375 340.2929382324219 82.67861175537109 340.3694458007812 82.91944885253906 C 340.4460144042969 83.16037750244141 340.52685546875 83.36521148681641 340.6070251464844 83.53862762451172 C 340.6871948242188 83.71208190917969 340.7667236328125 83.85410308837891 340.8406066894531 83.96936798095703 C 340.9363403320312 84.11869812011719 341.0304870605469 84.24409484863281 341.1214599609375 84.34986877441406 C 341.2124328613281 84.45565032958984 341.3003234863281 84.54181671142578 341.3835754394531 84.61270904541016 C 341.466796875 84.68358612060547 341.5454406738281 84.73921203613281 341.6179809570312 84.78390502929688 C 341.6904296875 84.82859802246094 341.7568054199219 84.86237335205078 341.8156127929688 84.88958740234375 C 341.9552917480469 84.95425415039062 342.09619140625 85.01029968261719 342.2395935058594 85.0579833984375 C 342.3830261230469 85.10566711425781 342.5289306640625 85.14500427246094 342.6787109375 85.17624664306641 C 342.8284606933594 85.20748138427734 342.9820251464844 85.23064422607422 343.1407165527344 85.24599456787109 C 343.2994689941406 85.26134490966797 343.46337890625 85.26888275146484 343.6336975097656 85.26888275146484 L 393.6929626464844 85.26888275146484 L 398.2782592773438 85.26888275146484 L 398.8429260253906 89.32677459716797 L 402.5864562988281 116.2279434204102 L 403.0994262695312 119.914306640625 L 399.1205749511719 120.4252624511719 C 397.7889404296875 120.5962448120117 396.4088134765625 120.7602157592773 394.9801025390625 120.9171371459961 C 393.5510864257812 121.0740737915039 392.0735168457031 121.2239532470703 390.5474548339844 121.3667373657227 C 389.0210571289062 121.5095520019531 387.4462280273438 121.645263671875 385.8228454589844 121.773811340332 C 384.1991577148438 121.9023895263672 382.5270080566406 122.0238189697266 380.8063659667969 122.1380767822266 C 379.0997924804688 122.2513809204102 377.3842468261719 122.3576278686523 375.6598205566406 122.4568023681641 C 373.9351196289062 122.5559844970703 372.2015686035156 122.6481094360352 370.4591064453125 122.7331466674805 C 368.7164611816406 122.8182067871094 366.9649963378906 122.8961791992188 365.2047119140625 122.9670639038086 C 363.4442138671875 123.037956237793 361.6749267578125 123.1017608642578 359.89697265625 123.1584930419922 C 358.1191101074219 123.2152099609375 356.3677673339844 123.2648391723633 354.6429138183594 123.307373046875 C 352.9179992675781 123.3498992919922 351.2196350097656 123.3853454589844 349.5478820800781 123.4136962890625 C 347.8760070800781 123.4420394897461 346.2308044433594 123.4633026123047 344.6122131347656 123.4774703979492 C 342.9935607910156 123.4916305541992 341.4016723632812 123.4987335205078 339.83642578125 123.4987335205078 Z M 326.8796997070312 7.18323802947998 C 326.0896301269531 7.18323802947998 325.2913208007812 7.206379413604736 324.4862060546875 7.252479553222656 C 323.6810302734375 7.298590660095215 322.8689270019531 7.367673873901367 322.0514526367188 7.459583759307861 C 321.2337951660156 7.551505088806152 320.4105529785156 7.666271209716797 319.583251953125 7.803717613220215 C 318.7556762695312 7.94119119644165 317.9239196777344 8.101377487182617 317.0893249511719 8.284115791320801 C 316.3054809570312 8.455756187438965 315.5397644042969 8.658719062805176 314.7933959960938 8.892524719238281 C 314.0467834472656 9.126419067382812 313.3193664550781 9.391190528869629 312.6124572753906 9.686373710632324 C 311.9052429199219 9.981679916381836 311.2184448242188 10.307448387146 310.5532836914062 10.66320705413818 C 309.8877563476562 11.01915550231934 309.2437744140625 11.40514659881592 308.6226501464844 11.82073211669922 C 308.02490234375 12.22067546844482 307.4557800292969 12.66359710693359 306.916259765625 13.14858341217041 C 306.3763122558594 13.6339111328125 305.8658447265625 14.16142654418945 305.3857116699219 14.73023414611816 C 304.9051513671875 15.29952526092529 304.4548950195312 15.91024589538574 304.0358276367188 16.5615177154541 C 303.6163330078125 17.21342086791992 303.2279357910156 17.90601921081543 302.8716125488281 18.6384449005127 C 302.5093994140625 19.38305282592773 302.2024536132812 20.18455696105957 301.951171875 21.0414867401123 C 301.6996154785156 21.89951133728027 301.5037841796875 22.81324005126953 301.3640747070312 23.78119468688965 C 301.2241821289062 24.75054931640625 301.1404418945312 25.77444648742676 301.1133117675781 26.8514347076416 C 301.0861511230469 27.93013954162598 301.1156921386719 29.06228065490723 301.2024536132812 30.24640464782715 L 305.589599609375 90.13208770751953 C 305.6975708007812 91.60619354248047 305.8668212890625 93.00168609619141 306.0968933105469 94.31606292724609 C 306.327392578125 95.63288879394531 306.618896484375 96.86802673339844 306.9707946777344 98.01899719238281 C 307.3233337402344 99.17184448242188 307.7364196777344 100.2399826049805 308.2095336914062 101.2210464477539 C 308.6832580566406 102.2034378051758 309.2171020507812 103.0982513427734 309.8103637695312 103.9031219482422 C 310.410888671875 104.7178115844727 311.0335693359375 105.4745788574219 311.6808166503906 106.1753540039062 C 312.3286437988281 106.8768005371094 313.0010375976562 107.5220184326172 313.7003479003906 108.1129379272461 C 314.4002380371094 108.7043380737305 315.1269836425781 109.2412490844727 315.883056640625 109.7256393432617 C 316.6395568847656 110.2103500366211 317.4253234863281 110.6424102783203 318.2427062988281 111.023796081543 C 319.1218872070312 111.4340057373047 320.0075378417969 111.8090515136719 320.8980407714844 112.1483840942383 C 321.7888793945312 112.4878845214844 322.6845397949219 112.7916107177734 323.5833129882812 113.0590591430664 C 324.4824523925781 113.3265991210938 325.384521484375 113.5578155517578 326.2880249023438 113.7521820068359 C 327.1917419433594 113.9466018676758 328.0967712402344 114.1041488647461 329.0014343261719 114.2243270874023 C 329.9846801757812 114.3549270629883 330.9331359863281 114.4694671630859 331.8450622558594 114.5677871704102 C 332.7571105957031 114.666130065918 333.6327514648438 114.7482604980469 334.4703979492188 114.814079284668 C 335.3080444335938 114.8798828125 336.1077880859375 114.9293670654297 336.8680114746094 114.9623947143555 C 337.6282348632812 114.9954223632812 338.3489379882812 115.0119857788086 339.028564453125 115.0119857788086 C 340.5590515136719 115.0119857788086 342.1156921386719 115.0050964355469 343.6984252929688 114.9912872314453 C 345.2810668945312 114.9774703979492 346.8898315429688 114.9567642211914 348.5245971679688 114.9291610717773 C 350.1593017578125 114.9015655517578 351.8199768066406 114.867073059082 353.5066833496094 114.8257141113281 C 355.1932678222656 114.7843322753906 356.9057922363281 114.736083984375 358.6442260742188 114.6809539794922 C 360.3822326660156 114.6258316040039 362.1116943359375 114.5638198852539 363.8325805664062 114.4949417114258 C 365.5532836914062 114.4260559082031 367.265380859375 114.3502883911133 368.9689025878906 114.2676467895508 C 370.6722106933594 114.1850204467773 372.3668518066406 114.0955123901367 374.0527648925781 113.9991149902344 C 375.738525390625 113.9027404785156 377.41552734375 113.7994995117188 379.0838317871094 113.6893768310547 C 380.3258056640625 113.6074142456055 381.5414733886719 113.5216369628906 382.7308959960938 113.4320602416992 C 383.920166015625 113.3424911499023 385.0831298828125 113.2491226196289 386.2198181152344 113.1519165039062 C 387.3563842773438 113.0547332763672 388.4666137695312 112.9537200927734 389.5506286621094 112.8488922119141 C 390.6344299316406 112.7440567016602 391.6920166015625 112.6354141235352 392.7232360839844 112.5228958129883 L 390.1874084472656 93.40805053710938 L 344.4513244628906 93.40805053710938 C 343.8916931152344 93.40805053710938 343.3379211425781 93.37866973876953 342.7909240722656 93.32012176513672 C 342.2439880371094 93.26158142089844 341.7039184570312 93.17387390136719 341.1717224121094 93.05722045898438 C 340.6395874023438 92.94059753417969 340.1153259277344 92.79503631591797 339.5998840332031 92.62076568603516 C 339.0845947265625 92.44654083251953 338.578125 92.24362945556641 338.08154296875 92.01228332519531 C 337.5398559570312 91.75996398925781 337.0245056152344 91.47487640380859 336.5363159179688 91.15775299072266 C 336.0482788085938 90.84075927734375 335.5873413085938 90.49176025390625 335.1543273925781 90.11148071289062 C 334.7214965820312 89.73139190673828 334.3166809082031 89.32009887695312 333.9403991699219 88.87830352783203 C 333.5643920898438 88.43677520751953 333.2170104980469 87.96482849121094 332.8990478515625 87.46318054199219 C 332.6136474609375 87.01300048828125 332.3580017089844 86.54309844970703 332.1312561035156 86.05159759521484 C 331.9046936035156 85.56044006347656 331.7070922851562 85.04775238037109 331.5379028320312 84.51171112060547 C 331.3688354492188 83.97605895996094 331.22802734375 83.41710662841797 331.1149291992188 82.83304595947266 C 331.0019836425781 82.24945068359375 330.9167175292969 81.64083862304688 330.8584594726562 81.00535583496094 L 330.0467529296875 72.15251159667969 L 329.6968688964844 68.33639526367188 L 334.0455017089844 68.19505310058594 L 377.7043762207031 66.77579498291016 L 375.6566162109375 50.55464172363281 L 332.2418212890625 49.17105102539062 L 327.9271240234375 49.0335578918457 L 327.5886840820312 45.34238052368164 L 326.7354431152344 36.03600311279297 C 326.6402587890625 34.99786758422852 326.685791015625 34.07209014892578 326.8329772949219 33.24789810180664 C 326.97998046875 32.4246940612793 327.2284545898438 31.70259094238281 327.5395202636719 31.07097816467285 C 327.8503112792969 30.43995094299316 328.2236938476562 29.89908599853516 328.6209716796875 29.43790054321289 C 329.0180053710938 28.97702789306641 329.4389953613281 28.59563636779785 329.8453063964844 28.28334808349609 C 330.3853759765625 27.86826133728027 330.9839172363281 27.50453948974609 331.6396789550781 27.19246673583984 C 332.2950744628906 26.88053512573242 333.0077209472656 26.62015724182129 333.7763366699219 26.41162872314453 C 334.5446166992188 26.20316314697266 335.3689575195312 26.04649353027344 336.2479858398438 25.94194412231445 C 337.126953125 25.8374137878418 338.0606689453125 25.78497695922852 339.0480651855469 25.78497695922852 L 381.2163391113281 25.78497695922852 L 378.9843139648438 8.960152626037598 C 378.260009765625 8.901215553283691 377.5187683105469 8.843660354614258 376.7606201171875 8.787472724914551 C 376.0025024414062 8.731296539306641 375.2274780273438 8.676487922668457 374.4354858398438 8.623050689697266 C 373.6435852050781 8.569611549377441 372.8347473144531 8.51753044128418 372.009033203125 8.466808319091797 C 371.1832885742188 8.416089057922363 370.3406677246094 8.366727828979492 369.4811096191406 8.318722724914551 C 368.2082824707031 8.247639656066895 366.8790588378906 8.178057670593262 365.4933166503906 8.109969139099121 C 364.1077270507812 8.041888236999512 362.6656494140625 7.975292205810547 361.1670837402344 7.910180568695068 C 359.6687316894531 7.845077037811279 358.1138610839844 7.781456470489502 356.5025634765625 7.719320774078369 C 354.8914184570312 7.657190322875977 353.2237548828125 7.59652853012085 351.4997253417969 7.537350654602051 C 349.7774047851562 7.478235244750977 347.9728393554688 7.42654275894165 346.0859375 7.382261753082275 C 344.1991271972656 7.33798360824585 342.22998046875 7.301109313964844 340.1783752441406 7.271620750427246 C 338.1268615722656 7.242141246795654 335.992919921875 7.220039844512939 333.7764892578125 7.205316066741943 C 331.5601196289062 7.190592288970947 329.26123046875 7.18323802947998 326.8796997070312 7.18323802947998 Z M 285.9934997558594 122.4864120483398 L 281.287353515625 122.4864120483398 L 231.2116088867188 122.4864120483398 C 228.9699249267578 122.4864120483398 226.8149871826172 122.4071426391602 224.7503967285156 122.2491989135742 C 222.6862335205078 122.0912857055664 220.7128448486328 121.8547439575195 218.8337860107422 121.5402221679688 C 216.9555358886719 121.2258377075195 215.1719055175781 120.8335876464844 213.4864349365234 120.3641662597656 C 211.8020477294922 119.8950424194336 210.2160339355469 119.3489532470703 208.7317962646484 118.7265930175781 C 207.1471405029297 118.062126159668 205.6652679443359 117.2991943359375 204.2884063720703 116.4399642944336 C 202.9131622314453 115.5817565917969 201.6430511474609 114.6277236938477 200.4801177978516 113.5800552368164 C 199.3188781738281 112.5339126586914 198.2648010253906 111.3946838378906 197.3198547363281 110.1646270751953 C 196.3765869140625 108.9366989135742 195.5422821044922 107.6185607910156 194.8188781738281 106.2125473022461 C 194.1432189941406 104.8992919921875 193.5532836914062 103.4991607666016 193.0495300292969 102.0155487060547 C 192.5468139648438 100.5350189208984 192.1300506591797 98.97170257568359 191.7995758056641 97.32902526855469 C 191.4698638916016 95.69012451171875 191.2261352539062 93.97261810302734 191.0686950683594 92.17992401123047 C 190.9116363525391 90.3917236328125 190.8404846191406 88.52911376953125 190.8554534912109 86.59550476074219 L 191.4983215332031 3.581914186477661 L 191.5260620117188 -1.460904331906931e-05 L 195.8344421386719 -1.460904331906931e-05 L 228.8960113525391 -1.460904331906931e-05 L 233.2043914794922 -1.460904331906931e-05 L 233.2891845703125 3.581914186477661 L 235.1295166015625 81.32360076904297 C 235.13671875 81.6268310546875 235.1557312011719 81.91619110107422 235.1865234375 82.19123077392578 C 235.2173309326172 82.46639251708984 235.2599182128906 82.72721099853516 235.3141632080078 82.97323608398438 C 235.3684387207031 83.21934509277344 235.4343872070312 83.45065307617188 235.5119476318359 83.66670989990234 C 235.5895538330078 83.88283538818359 235.6787109375 84.08367919921875 235.7794494628906 84.26882171630859 C 235.8336181640625 84.36843872070312 235.8906097412109 84.45729827880859 235.9528198242188 84.53742980957031 C 236.0150299072266 84.61756896972656 236.0823974609375 84.68895721435547 236.1572418212891 84.75361633300781 C 236.2321166992188 84.81827545166016 236.3144683837891 84.87618255615234 236.4066619873047 84.92935943603516 C 236.4988555908203 84.98253631591797 236.6008453369141 85.03097534179688 236.7149963378906 85.07667541503906 C 236.9272308349609 85.16165924072266 237.1571197509766 85.23616790771484 237.4041442871094 85.30013275146484 C 237.6511840820312 85.36410522460938 237.9154357910156 85.41753387451172 238.1963195800781 85.46034240722656 C 238.4772186279297 85.50314331054688 238.7748107910156 85.53533172607422 239.0885467529297 85.55680847167969 C 239.4022827148438 85.57827758789062 239.732177734375 85.58905029296875 240.0777435302734 85.58905029296875 L 279.2634582519531 85.58905029296875 L 283.8497924804688 85.58905029296875 L 284.0856323242188 89.64878082275391 L 285.74658203125 118.2365188598633 L 285.9934997558594 122.4864120483398 Z M 200.1338653564453 7.18323802947998 L 200.0346832275391 86.59550476074219 C 200.0326232910156 88.23087310791016 200.0981750488281 89.79628753662109 200.2310791015625 91.28893280029297 C 200.3642272949219 92.78471374511719 200.5649871826172 94.20710754394531 200.8330230712891 95.55327606201172 C 201.1015777587891 96.90201568603516 201.4376220703125 98.1739501953125 201.8408355712891 99.36631011962891 C 202.2446899414062 100.560661315918 202.7158355712891 101.6749114990234 203.2538604736328 102.7062835693359 C 203.7527008056641 103.6625289916992 204.3182525634766 104.5511322021484 204.9532928466797 105.3742599487305 C 205.5890808105469 106.1983337402344 206.2943725585938 106.9566268920898 207.0719604492188 107.6513900756836 C 207.8503265380859 108.3468475341797 208.7009429931641 108.9785003662109 209.6266021728516 109.5486679077148 C 210.5529632568359 110.119270324707 211.5543060302734 110.6281814575195 212.6333160400391 111.0777130126953 C 213.7994689941406 111.5635604858398 215.0612182617188 111.9898147583008 216.4157562255859 112.3559265136719 C 217.7709808349609 112.7222137451172 219.2188873291016 113.0282440185547 220.7566680908203 113.2735061645508 C 222.2949676513672 113.5188446044922 223.9229431152344 113.7033386230469 225.6376953125 113.8264923095703 C 227.352783203125 113.9496765136719 229.1543731689453 114.0114898681641 231.0395965576172 114.0114898681641 L 276.1438293457031 114.0114898681641 L 275.0973205566406 93.73193359375 L 240.2984619140625 93.73193359375 C 239.6168823242188 93.73193359375 238.9533233642578 93.70537567138672 238.3088684082031 93.65242767333984 C 237.6644744873047 93.59949493408203 237.0392150878906 93.52020263671875 236.4342193603516 93.41471862792969 C 235.8292999267578 93.30926513671875 235.2446746826172 93.17763519287109 234.681396484375 93.02005767822266 C 234.1182708740234 92.86250305175781 233.5765228271484 92.67902374267578 233.0572814941406 92.46981048583984 C 232.4396209716797 92.22092437744141 231.8563232421875 91.92973327636719 231.3106994628906 91.59912872314453 C 230.7653198242188 91.26866149902344 230.2576141357422 90.89884948730469 229.7909240722656 90.49256896972656 C 229.3244323730469 90.08650207519531 228.89892578125 89.64405822753906 228.5175628662109 89.16810607910156 C 228.136474609375 88.69247436523438 227.7995300292969 88.18341827392578 227.5099487304688 87.64382934570312 C 227.2667541503906 87.19071960449219 227.0523071289062 86.71773529052734 226.8667907714844 86.22583770751953 C 226.681396484375 85.73429107666016 226.5249633789062 85.22389984130859 226.3976135253906 84.69561004638672 C 226.2703399658203 84.167724609375 226.1721801757812 83.62201690673828 226.1032562255859 83.05944061279297 C 226.0343933105469 82.497314453125 225.9947662353516 81.91837310791016 225.9845428466797 81.32360076904297 L 224.7110290527344 7.18323802947998 L 200.1338653564453 7.18323802947998 Z M 171.5081176757812 122.4864120483398 L 166.8019409179688 122.4864120483398 L 130.6878509521484 122.4864120483398 L 125.9816970825195 122.4864120483398 L 126.2040405273438 118.2365188598633 L 132.2027587890625 3.581914186477661 L 132.3901672363281 -1.460904331906931e-05 L 136.6985473632812 -1.460904331906931e-05 L 169.7601013183594 -1.460904331906931e-05 L 174.0684967041016 -1.460904331906931e-05 L 173.9936065673828 3.581914186477661 L 171.5969543457031 118.2365188598633 L 171.5081176757812 122.4864120483398 Z M 135.7823944091797 114.0114898681641 L 162.3279876708984 114.0114898681641 L 165.2549285888672 7.18323802947998 L 140.6777648925781 7.18323802947998 L 135.7823944091797 114.0114898681641 Z M 45.66726684570312 122.4864120483398 L 40.96109771728516 122.4864120483398 L 4.847006797790527 122.4864120483398 L 0.1408387124538422 122.4864120483398 L 0.7322494387626648 118.2365188598633 L 16.68748092651367 3.581914186477661 L 17.18593788146973 -1.460904331906931e-05 L 21.49431800842285 -1.460904331906931e-05 L 77.0513916015625 -1.460904331906931e-05 C 78.20079040527344 -1.460904331906931e-05 79.35871887207031 0.026873879134655 80.52317810058594 0.08049340546131134 C 81.68772888183594 0.1341099739074707 82.85890960693359 0.2144442945718765 84.03474426269531 0.3213233947753906 C 85.21075439453125 0.4282196760177612 86.39151763916016 0.5616851449012756 87.57503509521484 0.7215384840965271 C 88.75883483886719 0.8814302086830139 89.94548797607422 1.067735195159912 91.13301849365234 1.28029990196228 C 92.40991973876953 1.508856177330017 93.65933990478516 1.799202919006348 94.87943267822266 2.150593519210815 C 96.10018157958984 2.502162933349609 97.29179382324219 2.914912462234497 98.45236968994141 3.388096809387207 C 99.61378479003906 3.861618757247925 100.7443237304688 4.395769596099854 101.8420867919922 4.989871025085449 C 102.9408264160156 5.584502696990967 104.0069351196289 6.239291667938232 105.0384750366211 6.953566551208496 C 106.0927734375 7.683614253997803 107.0881729125977 8.504836082458496 108.0233383178711 9.415661811828613 C 108.9597778320312 10.32773113250732 109.836067199707 11.32989406585693 110.6508102416992 12.42064762115479 C 111.4668884277344 13.51318264007568 112.2214431762695 14.69487571716309 112.9130249023438 15.96428203582764 C 113.6059265136719 17.23609352111816 114.2357788085938 18.59628677368164 114.8011093139648 20.0434398651123 C 115.3477096557617 21.44264030456543 115.8095321655273 22.95980453491211 116.1860504150391 24.59246826171875 C 116.5634841918945 26.22908973693848 116.8553314208984 27.98233222961426 117.0609588623047 29.84982681274414 C 117.2671585083008 31.72247695922852 117.3867492675781 33.71061325073242 117.4190139770508 35.81194305419922 C 117.4513549804688 37.91977691650391 117.3958587646484 40.14218902587891 117.2516708374023 42.47693634033203 C 117.1057434082031 44.84010314941406 116.885871887207 47.10580062866211 116.5925140380859 49.26963043212891 C 116.2982330322266 51.44028854370117 115.930061340332 53.50775909423828 115.4885711669922 55.4676628112793 C 115.0458297729492 57.43314361572266 114.5294494628906 59.28979110717773 113.9400939941406 61.03326797485352 C 113.3492584228516 62.78114318847656 112.6852340698242 64.4146728515625 111.9487533569336 65.92957305908203 C 111.1859970092773 67.49847412109375 110.3695526123047 68.98146820068359 109.501091003418 70.37588500976562 C 108.6308898925781 71.77308654785156 107.7086791992188 73.08097076416016 106.736198425293 74.29691314697266 C 105.7620239257812 75.51496124267578 104.737678527832 76.64043426513672 103.6649398803711 77.67072296142578 C 102.5906143188477 78.70250701904297 101.4680709838867 79.63857269287109 100.2991333007812 80.47635650634766 C 99.14406585693359 81.30419158935547 97.96289825439453 82.06752777099609 96.75794219970703 82.76516723632812 C 95.55180358886719 83.46349334716797 94.32204437255859 84.09584808349609 93.07102203369141 84.66107940673828 C 91.81899261474609 85.22677612304688 90.54589080810547 85.72511291503906 89.25405883789062 86.15497589111328 C 87.96144866943359 86.58509826660156 86.65034484863281 86.94656372070312 85.32313537597656 87.23829650878906 C 84.07839965820312 87.51188659667969 82.83709716796875 87.75186157226562 81.60141754150391 87.95791625976562 C 80.36540985107422 88.16403198242188 79.13514709472656 88.33621215820312 77.91287231445312 88.47417449951172 C 76.69038391113281 88.61216735839844 75.47599792480469 88.71592712402344 74.27194976806641 88.78518676757812 C 73.06778717041016 88.85444641113281 71.87408447265625 88.88920593261719 70.69306945800781 88.88920593261719 C 70.08147430419922 88.88920593261719 69.46449279785156 88.88212585449219 68.8421630859375 88.86796569824219 C 68.21982574462891 88.85379791259766 67.59214782714844 88.83253479003906 66.95912933349609 88.80415344238281 C 66.32614135742188 88.77577209472656 65.68782043457031 88.74027252197266 65.04418182373047 88.69763946533203 C 64.40058135986328 88.65500640869141 63.75168991088867 88.60524749755859 63.09750366210938 88.54831695556641 C 62.45066833496094 88.49203491210938 61.80839157104492 88.43045806884766 61.17066955566406 88.36359405517578 C 60.53301239013672 88.29673004150391 59.89993286132812 88.22460174560547 59.27141571044922 88.14720153808594 C 58.64297485351562 88.06981658935547 58.01911163330078 87.98715209960938 57.39983367919922 87.89925384521484 C 56.78063201904297 87.81135559082031 56.16603088378906 87.71820068359375 55.5560188293457 87.61980438232422 C 55.01553726196289 87.53263092041016 54.48476028442383 87.44546508789062 53.96366882324219 87.35829162597656 C 53.44264602661133 87.27114105224609 52.93132019042969 87.18399810791016 52.42966842651367 87.09684753417969 C 51.92809295654297 87.00971984863281 51.43619155883789 86.92259216308594 50.9539794921875 86.83549499511719 C 50.47182083129883 86.74840545654297 49.99934005737305 86.66130828857422 49.53653335571289 86.57425689697266 L 46.12516021728516 118.2365188598633 L 45.66726684570312 122.4864120483398 Z M 10.677490234375 114.0114898681641 L 37.22308731079102 114.0114898681641 L 40.9209098815918 81.64199066162109 L 41.47002410888672 76.83515167236328 L 46.74853134155273 77.69252014160156 C 47.08201217651367 77.74667358398438 47.43618011474609 77.805908203125 47.81103515625 77.87020874023438 C 48.1859245300293 77.93452453613281 48.58151245117188 78.00391387939453 48.997802734375 78.07838439941406 C 49.41413497924805 78.15287017822266 49.8511848449707 78.23244476318359 50.3089599609375 78.31712341308594 C 50.76679611206055 78.40181732177734 51.24535751342773 78.49160766601562 51.74467086791992 78.58651733398438 C 52.22070693969727 78.67700958251953 52.70784759521484 78.76748657226562 53.20608901977539 78.85797882080078 C 53.70438766479492 78.948486328125 54.21379852294922 79.03899383544922 54.73432159423828 79.1295166015625 C 55.25491333007812 79.22006225585938 55.78661727905273 79.31061553955078 56.32941818237305 79.40116882324219 C 56.87229919433594 79.49175262451172 57.42628860473633 79.58235168457031 57.99138259887695 79.67295837402344 C 58.54003143310547 79.76092529296875 59.09280014038086 79.84416961669922 59.64967727661133 79.92271423339844 C 60.20663070678711 80.00126647949219 60.7676887512207 80.07509613037109 61.33284759521484 80.14423370361328 C 61.89807510375977 80.21336364746094 62.46738815307617 80.27780151367188 63.04078674316406 80.33750915527344 C 63.61425018310547 80.39724731445312 64.19179534912109 80.4522705078125 64.77341461181641 80.50258636474609 C 65.34783172607422 80.55228424072266 65.91757202148438 80.5958251953125 66.48265075683594 80.63317108154297 C 67.04777526855469 80.67052459716797 67.60819244384766 80.70169067382812 68.16393280029297 80.72663879394531 C 68.71971130371094 80.7515869140625 69.27078247070312 80.77033996582031 69.81714630126953 80.78282928466797 C 70.363525390625 80.79534149169922 70.90518951416016 80.80160522460938 71.442138671875 80.80160522460938 C 72.42730712890625 80.80160522460938 73.4246826171875 80.77243041992188 74.43238830566406 80.71426391601562 C 75.44003295898438 80.65610504150391 76.45793914794922 80.56900024414062 77.48423004150391 80.45311737060547 C 78.51036071777344 80.3372802734375 79.54482269287109 80.19269561767578 80.58572387695312 80.01959991455078 C 81.62637329101562 79.84653472900391 82.67340087890625 79.64500427246094 83.72494506835938 79.41519927978516 C 84.69355010986328 79.20352172851562 85.65345764160156 78.93917846679688 86.60292053222656 78.62295532226562 C 87.55196380615234 78.30687713623047 88.49044036865234 77.93901062011719 89.41664123535156 77.52016448974609 C 90.34229278564453 77.10157775878906 91.25554656982422 76.63214111328125 92.15469360351562 76.1126708984375 C 93.05318450927734 75.59361267089844 93.93746948242188 75.02467346191406 94.80585479736328 74.40671539306641 C 95.65826416015625 73.80012512207031 96.48410034179688 73.10885620117188 97.28195190429688 72.33479309082031 C 98.07893371582031 71.56159210205078 98.84780883789062 70.70597076416016 99.58721160888672 69.76988220214844 C 100.3256072998047 68.83503723144531 101.0344390869141 67.82015228271484 101.7123336791992 66.72718811035156 C 102.3891830444336 65.63594055175781 103.035041809082 64.46712493896484 103.6486206054688 63.22275161743164 C 104.2859115600586 61.9302864074707 104.8630981445312 60.5212516784668 105.3795318603516 58.99939346313477 C 105.8948287963867 57.48088073730469 106.349479675293 55.85055160522461 106.7428741455078 54.11224746704102 C 107.1352767944336 52.3782958984375 107.4666290283203 50.53746795654297 107.7363967895508 48.5936279296875 C 108.0053939819336 46.65525817871094 108.2130966186523 44.61506652832031 108.3590087890625 42.47693634033203 C 108.5024642944336 40.37499618530273 108.5690155029297 38.38283157348633 108.5592880249023 36.50241088867188 C 108.5495758056641 34.62716293334961 108.4640274047852 32.86245346069336 108.3031616210938 31.2103271484375 C 108.1426773071289 29.56221199035645 107.9072036743164 28.02559852600098 107.5972213745117 26.60260581970215 C 107.2878952026367 25.18259239196777 106.9042663574219 23.87526702880859 106.4467315673828 22.68281936645508 C 106.0095977783203 21.54353713989258 105.5296936035156 20.47823905944824 105.0080947875977 19.48803520202637 C 104.4872665405273 18.49929237365723 103.9247512817383 17.58521461486816 103.3215942382812 16.74696731567383 C 102.7192077636719 15.90975379943848 102.0761260986328 15.14799880981445 101.3934173583984 14.46289443969727 C 100.7113876342773 13.778489112854 99.9896240234375 13.17042541503906 99.2291259765625 12.63995361328125 C 98.44757080078125 12.09481525421143 97.64088439941406 11.59525012969971 96.81056213378906 11.14178276062012 C 95.98081207275391 10.68861389160156 95.12733459472656 10.28141784667969 94.2515869140625 9.920745849609375 C 93.37631988525391 9.56025505065918 92.47869110107422 9.246189117431641 91.56017303466797 8.979104995727539 C 90.64201354980469 8.712128639221191 89.70282745361328 8.492057800292969 88.74407958984375 8.319484710693359 C 87.69620513916016 8.130865097045898 86.65032196044922 7.965534210205078 85.60813903808594 7.823643207550049 C 84.56616973876953 7.681774139404297 83.52783966064453 7.563318252563477 82.49490356445312 7.468448162078857 C 81.46211242675781 7.373583316802979 80.43463897705078 7.302282810211182 79.41422271728516 7.254694938659668 C 78.39389038085938 7.207110404968262 77.38053894042969 7.18323802947998 76.37592315673828 7.18323802947998 L 24.84974479675293 7.18323802947998 L 10.677490234375 114.0114898681641 Z M 67.70771026611328 61.43994903564453 L 47.73665237426758 61.43994903564453 L 43.22874069213867 61.43994903564453 L 43.67425155639648 57.54011154174805 L 46.96090316772461 28.76980209350586 L 47.38571929931641 25.05112266540527 L 51.77545928955078 25.05112266540527 L 71.22296905517578 25.05112266540527 C 72.06202697753906 25.05112266540527 72.85944366455078 25.10509300231934 73.61414337158203 25.21265983581543 C 74.36897277832031 25.32024383544922 75.0811767578125 25.48146438598633 75.74968719482422 25.69598388671875 C 76.41841125488281 25.91056251525879 77.04351043701172 26.17852401733398 77.62384796142578 26.49953079223633 C 78.20446014404297 26.82068824768066 78.74038696289062 27.19500541687012 79.23045349121094 27.6221866607666 C 79.66346740722656 27.99963569641113 80.06231689453125 28.41732978820801 80.42650604248047 28.8744068145752 C 80.79091644287109 29.33179664611816 81.12066650390625 29.82868194580078 81.41520690917969 30.36420059204102 C 81.70997619628906 30.9001522064209 81.96951293945312 31.47485542297363 82.19329071044922 32.08749771118164 C 82.41725921630859 32.70068359375 82.60541534423828 33.35192489624023 82.7572021484375 34.04039001464844 C 82.89041137695312 34.64453506469727 82.99751281738281 35.27579116821289 83.07855987548828 35.936767578125 C 83.15969085693359 36.59838485717773 83.21473693847656 37.28984451293945 83.24376678466797 38.0137825012207 C 83.2728271484375 38.73848724365234 83.27581787109375 39.49580383300781 83.25279235839844 40.28841018676758 C 83.22972106933594 41.08192443847656 83.18059539794922 41.9109001159668 83.10543823242188 42.77800750732422 C 83.02939605712891 43.65536880493164 82.93846130371094 44.49518203735352 82.83216094970703 45.29990005493164 C 82.72572326660156 46.10555648803711 82.6038818359375 46.87593841552734 82.46613311767578 47.61352920532227 C 82.32823944091797 48.3519172668457 82.17440032958984 49.05736923217773 82.00414276123047 49.73239517211914 C 81.83372497558594 50.40807723999023 81.64684295654297 51.05321502685547 81.44301605224609 51.67031860351562 C 81.19908142089844 52.40884780883789 80.91640472412109 53.10976409912109 80.59564208984375 53.77195739746094 C 80.27455902099609 54.43478012084961 79.91537475585938 55.05871963500977 79.51871490478516 55.64264297485352 C 79.12173461914062 56.22706985473633 78.68727874755859 56.7713508605957 78.21603393554688 57.27436065673828 C 77.74445343017578 57.77774047851562 77.23609161376953 58.23973846435547 76.691650390625 58.65924453735352 C 76.09397888183594 59.11975860595703 75.45676422119141 59.52376937866211 74.78136444091797 59.87077331542969 C 74.10561370849609 60.21795272827148 73.39176177978516 60.50801086425781 72.64117431640625 60.740478515625 C 71.89032745361328 60.9730110168457 71.10286712646484 61.14787292480469 70.28016662597656 61.26461410522461 C 69.45731353759766 61.38136672973633 68.59934997558594 61.43994903564453 67.70771026611328 61.43994903564453 Z M 53.08257675170898 53.66211700439453 L 68.45907592773438 53.66211700439453 C 68.89597320556641 53.66211700439453 69.26116180419922 53.6334114074707 69.5662841796875 53.58800506591797 C 69.87139129638672 53.54260635375977 70.11640930175781 53.48051834106445 70.31295776367188 53.41370391845703 C 70.50949096679688 53.34690093994141 70.65756988525391 53.275390625 70.76882171630859 53.21115493774414 C 70.88008117675781 53.14693069458008 70.95452880859375 53.08998489379883 71.00379180908203 53.05228042602539 C 71.1861572265625 52.91279220581055 71.36238861083984 52.74409866333008 71.53144073486328 52.54796600341797 C 71.70043182373047 52.35187911987305 71.86222839355469 52.1284065246582 72.01573944091797 51.87926864624023 C 72.16919708251953 51.63021469116211 72.31436157226562 51.35555267333984 72.45018005371094 51.05704116821289 C 72.5859375 50.75866317749023 72.71232604980469 50.43646621704102 72.82830810546875 50.09222030639648 C 72.98934936523438 49.61431503295898 73.13922119140625 49.10168838500977 73.27773284912109 48.55547332763672 C 73.41612243652344 48.00969696044922 73.54316711425781 47.43045043945312 73.65868377685547 46.81889724731445 C 73.77407073974609 46.20787811279297 73.87792205810547 45.56465911865234 73.97004699707031 44.89040374755859 C 74.06209564208984 44.21680068969727 74.14241027832031 43.51228713989258 74.21082305908203 42.77800750732422 C 74.27535247802734 42.08538055419922 74.31986236572266 41.42228698730469 74.34439849853516 40.78964614868164 C 74.368896484375 40.1575813293457 74.37348175048828 39.55584716796875 74.35817718505859 38.98536682128906 C 74.3428955078125 38.41536712646484 74.30776214599609 37.87651824951172 74.25283050537109 37.36973190307617 C 74.19795227050781 36.86332702636719 74.12330627441406 36.38889312744141 74.02892303466797 35.94735717773438 C 73.93632507324219 35.51419830322266 73.83011627197266 35.13871765136719 73.71623229980469 34.81327056884766 C 73.60237884521484 34.48797988891602 73.4808349609375 34.21263885498047 73.35751342773438 33.97963714599609 C 73.23422241210938 33.74671936035156 73.10911560058594 33.55609130859375 72.98811340332031 33.40021514892578 C 72.86713409423828 33.24436950683594 72.75022125244141 33.12322616577148 72.64329528808594 33.02925872802734 C 72.60668182373047 32.99707412719727 72.55136108398438 32.94845199584961 72.46479034423828 32.89362716674805 C 72.37821960449219 32.83880996704102 72.26039123535156 32.77780151367188 72.09873962402344 32.72081756591797 C 71.93710327148438 32.66383361816406 71.73163604736328 32.61087799072266 71.46979522705078 32.57217025756836 C 71.20796203613281 32.53346252441406 70.88973236083984 32.50899887084961 70.50251770019531 32.50899887084961 L 55.36166381835938 32.50899887084961 L 53.08257675170898 53.66211700439453 Z" stroke="none" fill="#ff9500"/>
      </g>
    </g>
  </g>
</svg>
